<?xml version="1.0" encoding="utf-8"?>
<!-- Generator: Adobe Illustrator 22.0.1, SVG Export Plug-In . SVG Version: 6.00 Build 0)  -->
<svg version="1.1" id="Layer_1" xmlns="http://www.w3.org/2000/svg" xmlns:xlink="http://www.w3.org/1999/xlink" x="0px" y="0px"
	 viewBox="0 0 262 188.9" style="enable-background:new 0 0 262 188.9;" xml:space="preserve">
<style type="text/css">
	.st0{display:none;}
	.st1{display:inline;}
	.st2{fill:none;stroke:#000000;stroke-linecap:round;stroke-linejoin:round;stroke-miterlimit:10;}
	.st3{stroke:#000000;stroke-linecap:round;stroke-linejoin:round;stroke-miterlimit:10;}
	.st4{display:inline;fill:none;}
	.st5{display:inline;stroke:#000000;stroke-linecap:round;stroke-linejoin:round;stroke-miterlimit:10;}
	.st6{fill:none;}
</style>
<g class="st0">
	<path class="st1" d="M151.9,44.8h-41.9c-22.6,0-22.9-22.7-22.9-22.9V1c0-22.6,22.7-22.9,22.9-22.9h41.9c22.6,0,22.9,17.5,22.9,17.6
		v26.2C174.8,44.6,152.2,44.8,151.9,44.8z M110.1-17.9c-0.8,0-19,0.3-19,19v20.9c0,0.8,0.3,19,19,19h41.9c0.8,0,19-0.3,19-19V-4.2
		c0-0.6-0.3-13.7-19-13.7L110.1-17.9L110.1-17.9z"/>
	<path class="st1" d="M158.9,161.9h-55.8c-5.5,0-15.9-3.3-15.9-15.9V69.3c0-5.5,3.3-15.9,15.9-15.9h55.8c5.5,0,15.9,3.3,15.9,15.9
		V146C174.8,151.5,171.5,161.9,158.9,161.9z M103.1,57.3c-11.9,0-12,11.5-12,12V146c0,11.9,11.5,12,12,12h55.8c11.9,0,12-11.5,12-12
		V69.3c0-11.9-11.5-12-12-12H103.1z"/>
	<path class="st1" d="M62.7,154.9c-5.5,0-15.9-3.3-15.9-15.9V69.3c0-12.6,10.4-15.9,15.9-15.9c12.6,0,15.9,10.4,15.9,15.9V139
		C78.6,151.6,68.2,154.9,62.7,154.9z M62.7,57.3c-1.2,0-12,0.4-12,12V139c0,11.8,11.4,12,12,12c1.2,0,12-0.4,12-12V69.3
		C74.7,68,74.3,57.3,62.7,57.3z"/>
	<path class="st1" d="M199.3,154.9c-5.5,0-15.9-3.3-15.9-15.9V69.3c0-12.6,10.4-15.9,15.9-15.9c12.6,0,15.9,10.4,15.9,15.9V139
		C215.2,151.6,204.8,154.9,199.3,154.9z M199.3,57.3c-1.2,0-12,0.4-12,12V139c0,11.6,10.7,12,12,12c1.3,0,12-0.4,12-12V69.3
		C211.2,68,210.8,57.3,199.3,57.3z"/>
	<path class="st1" d="M131-18.9c-0.5,0-1-0.4-1-1v-26.7c0-0.5,0.4-1,1-1c0.5,0,1,0.4,1,1v26.7C132-19.4,131.5-18.9,131-18.9z"/>
	<path class="st1" d="M131-45.6c-3.8,0-6.9-3.1-6.9-6.9c0-3.8,3.1-6.9,6.9-6.9c3.8,0,6.9,3.1,6.9,6.9
		C137.9-48.7,134.8-45.6,131-45.6z M131-57.4c-2.7,0-4.9,2.2-4.9,4.9s2.2,4.9,4.9,4.9c2.7,0,4.9-2.2,4.9-4.9S133.7-57.4,131-57.4z"
		/>
	<path class="st1" d="M158.9,177.4c-0.5,0-1-0.4-1-1V160c0-0.5,0.4-1,1-1c0.5,0,1,0.4,1,1v16.5C159.9,176.9,159.4,177.4,158.9,177.4
		z"/>
	<path class="st1" d="M182,248.2c-12,0-21.4-16.2-21.4-36.9s9.4-36.9,21.4-36.9c12,0,21.4,16.2,21.4,36.9S194,248.2,182,248.2z
		 M182,178.4c-9.5,0-17.5,15.1-17.5,33s8,33,17.5,33c9.5,0,17.5-15.1,17.5-33S191.5,178.4,182,178.4z"/>
	<ellipse class="st1" cx="182" cy="211.3" rx="5.8" ry="10.4"/>
	<path class="st1" d="M98.8,248.2c-12,0-21.4-16.2-21.4-36.9s9.4-36.9,21.4-36.9s21.4,16.2,21.4,36.9S110.8,248.2,98.8,248.2z
		 M98.8,178.4c-9.5,0-17.5,15.1-17.5,33s8,33,17.5,33s17.5-15.1,17.5-33S108.3,178.4,98.8,178.4z"/>
	<ellipse class="st1" cx="98.8" cy="211.3" rx="5.8" ry="10.4"/>
	<path class="st1" d="M98.9,207.2c-0.5,0-1-0.4-1-1V160c0-0.5,0.4-1,1-1s1,0.4,1,1v46.2C99.9,206.7,99.4,207.2,98.9,207.2z"/>
	<g class="st1">
		<path d="M98.8,248.2H79.3c-12,0-21.4-16.2-21.4-36.9s9.4-36.9,21.4-36.9h19.5c1.1,0,2,0.9,2,2s-0.9,2-2,2
			c-9.5,0-17.5,15.1-17.5,33s8,33,17.5,33c1.1,0,2,0.9,2,2S99.9,248.2,98.8,248.2z M79.3,178.4c-9.5,0-17.5,15.1-17.5,33
			s8,33,17.5,33H89c-7-6-11.7-18.4-11.7-33c0-14.6,4.7-27,11.7-33H79.3z"/>
		<path d="M98.8,248.2L98.8,248.2c-1.1,0-2-0.9-2-2s0.9-2,2-2s2,0.9,2,2S99.9,248.2,98.8,248.2z"/>
	</g>
	<g class="st1">
		<path d="M182,248.2h-19.5c-12,0-21.4-16.2-21.4-36.9s9.4-36.9,21.4-36.9H182c1.1,0,2,0.9,2,2s-0.9,2-2,2c-9.5,0-17.5,15.1-17.5,33
			s8,33,17.5,33c1.1,0,2,0.9,2,2S183.1,248.2,182,248.2z M162.5,178.4c-9.5,0-17.5,15.1-17.5,33s8,33,17.5,33h9.7
			c-7-6-11.7-18.4-11.7-33c0-14.6,4.7-27,11.7-33H162.5z"/>
		<path d="M182,248.2L182,248.2c-1.1,0-2-0.9-2-2s0.9-2,2-2s2,0.9,2,2S183.1,248.2,182,248.2z"/>
	</g>
</g>
<g class="st0">
	<path class="st1" d="M43.9,207.5c0,1.7-0.9,3.1-1.9,3.1l0,0c-1.1,0-1.9-1.4-1.9-3.1V-14.4c0-1.7,0.9-3.1,1.9-3.1l0,0
		c1.1,0,1.9,1.4,1.9,3.1V207.5z"/>
	<path class="st1" d="M63.2-10c-1.9,0.3-3.8,0.7-5.7,1.2c-0.7-2-1.4-3.9-2.1-5.9c-0.7,2.3-1.4,4.7-2.1,7c-1.9,0.6-3.8,1.2-5.7,1.9
		c1.5,0.7,3,1.4,4.5,2.2C51.6-1.4,51,0.8,50.4,3c1.7-1.7,3.4-3.3,5.2-4.8c1.7,0.6,3.4,1.3,5.1,2c-0.6-1.8-1.3-3.7-1.9-5.5
		C60.3-6.9,61.7-8.5,63.2-10z"/>
	<path class="st1" d="M124.6-3.9c-1.9-0.5-3.8-0.9-5.6-1.3c-0.7-2.3-1.4-4.6-2.1-6.9c-0.7,2-1.4,4-2,6c-1.9-0.4-3.8-0.8-5.7-1.2
		c1.5,1.5,3,3.1,4.5,4.7c-0.6,1.8-1.3,3.7-1.9,5.5c1.7-0.7,3.4-1.4,5.1-2.1c1.7,1.5,3.4,2.9,5.2,4.4c-0.6-2.1-1.3-4.2-1.9-6.4
		C121.6-2.1,123.1-3,124.6-3.9z"/>
	<path class="st1" d="M63,12.3c-1.9,0.3-3.8,0.7-5.7,1.2c-0.7-2-1.4-3.9-2.1-5.9c-0.7,2.3-1.4,4.7-2.1,7c-1.9,0.6-3.8,1.2-5.7,1.9
		c1.5,0.7,3,1.4,4.5,2.1c-0.6,2.2-1.3,4.4-1.9,6.5c1.7-1.7,3.4-3.3,5.1-4.8c1.7,0.6,3.4,1.3,5.1,2c-0.6-1.8-1.3-3.7-1.9-5.5
		C60,15.3,61.5,13.8,63,12.3z"/>
	<path class="st1" d="M124.9,18.4c-1.9-0.5-3.8-0.9-5.6-1.3c-0.7-2.3-1.4-4.6-2.1-6.9c-0.7,2-1.4,4-2.1,6c-1.9-0.4-3.8-0.8-5.7-1.2
		c1.5,1.5,3,3.1,4.5,4.7c-0.6,1.8-1.3,3.7-1.9,5.5c1.7-0.7,3.4-1.4,5.1-2.1c1.7,1.5,3.4,2.9,5.2,4.4c-0.6-2.1-1.3-4.2-1.9-6.4
		C121.9,20.1,123.4,19.3,124.9,18.4z"/>
	<path class="st1" d="M185.7,45.6c-18.1,0-36.3-4.5-54-8.9l-2-0.5c-0.9-0.2-1.5-1-1.5-1.9V12.1c0-0.6,0.3-1.2,0.8-1.5
		c0.5-0.4,1.1-0.5,1.7-0.4l2,0.5c17.4,4.3,35.4,8.8,53,8.8c13.1,0,24.8-2.4,35.8-7.4c0.6-0.3,1.3-0.2,1.9,0.1c0.6,0.4,0.9,1,0.9,1.6
		V36c0,0.8-0.4,1.5-1.1,1.8C211.6,43,199.3,45.6,185.7,45.6z M132.2,32.8l0.5,0.1c17.4,4.3,35.4,8.8,53,8.8c12.6,0,24-2.3,34.7-6.9
		v-18c-10.7,4.4-22.1,6.6-34.7,6.6c-17.9,0-36-4.4-53.5-8.8L132.2,32.8L132.2,32.8z"/>
	<path class="st1" d="M185.7,110.2c-18.1,0-36.3-4.5-54-8.9c-17.4-4.3-35.4-8.8-53-8.8c-13.1,0-24.8,2.4-35.8,7.4
		c-0.6,0.3-1.3,0.2-1.9-0.1c-0.6-0.4-0.9-1-0.9-1.6V55.1c0-0.8,0.4-1.5,1.1-1.8c11.5-5.2,23.8-7.8,37.4-7.8c18.1,0,36.3,4.5,54,8.9
		c17.4,4.3,35.4,8.8,53,8.8c13.1,0,24.8-2.4,35.8-7.4c0.6-0.3,1.3-0.2,1.9,0.1c0.6,0.4,0.9,1,0.9,1.6v43.1c0,0.8-0.4,1.5-1.1,1.8
		C211.6,107.7,199.3,110.2,185.7,110.2z M78.7,88.7c18.1,0,36.3,4.5,54,8.9c17.4,4.3,35.4,8.8,53,8.8c12.6,0,24-2.3,34.7-6.9V60.5
		c-10.7,4.4-22.1,6.6-34.7,6.6c-18.1,0-36.3-4.5-54-8.9c-17.4-4.3-35.4-8.8-53-8.8c-12.6,0-24,2.3-34.7,6.9v38.9
		C54.7,90.8,66.1,88.7,78.7,88.7z"/>
	<path class="st1" d="M130.2,36.3c-0.2,0-0.3,0-0.5-0.1c-15.7-3.9-33.5-8.3-51.1-8.3c-13.1,0-24.8,2.4-35.8,7.4
		c-0.6,0.3-1.3,0.2-1.9-0.1c-0.6-0.4-0.9-1-0.9-1.6v-47.7c0-0.8,0.4-1.5,1.1-1.8c11.5-5.2,23.8-7.8,37.4-7.8c16.7,0,32.8,3.6,52,8.4
		c0.9,0.2,1.5,1,1.5,1.9v47.7c0,0.6-0.3,1.2-0.8,1.5C131.1,36.1,130.6,36.3,130.2,36.3z M78.7,24c16,0,31.4,3.3,49.6,7.8v-43.7
		c-18.3-4.5-33.7-7.9-49.6-7.9c-12.6,0-24,2.3-34.7,6.9v43.4C54.7,26.2,66.1,24,78.7,24z"/>
	<path class="st1" d="M185.7,110.2c-18.1,0-36.3-4.5-54-8.9c-17.4-4.3-35.4-8.8-53-8.8c-13.1,0-24.8,2.4-35.8,7.4
		c-0.6,0.3-1.3,0.2-1.9-0.1c-0.6-0.4-0.9-1-0.9-1.6V-14.1c0-0.8,0.4-1.5,1.1-1.8c11.5-5.2,23.8-7.8,37.4-7.8c18.1,0,36.3,4.5,54,8.9
		c17.4,4.3,35.4,8.8,53,8.8c13.1,0,24.8-2.4,35.8-7.4c0.6-0.3,1.3-0.2,1.9,0.1c0.6,0.4,0.9,1,0.9,1.6v112.3c0,0.8-0.4,1.5-1.1,1.8
		C211.6,107.7,199.3,110.2,185.7,110.2z M78.7,88.7c18.1,0,36.3,4.5,54,8.9c17.4,4.3,35.4,8.8,53,8.8c12.6,0,24-2.3,34.7-6.9V-8.7
		c-10.7,4.4-22.1,6.6-34.7,6.6c-18.1,0-36.3-4.5-54-8.9c-17.4-4.3-35.4-8.8-53-8.8c-12.6,0-24,2.3-34.7,6.9V95.3
		C54.7,90.8,66.1,88.7,78.7,88.7z"/>
	<path class="st1" d="M94.7-10.3c-1.9-0.2-3.8-0.4-5.6-0.6c-0.7-2.2-1.4-4.4-2.1-6.6c-0.7,2.1-1.4,4.2-2.1,6.3
		c-1.9-0.1-3.8-0.2-5.7-0.2c1.5,1.2,3,2.5,4.5,3.8c-0.6,1.9-1.3,3.9-1.9,5.8c1.7-1,3.4-2,5.2-3c1.7,1.2,3.4,2.4,5.2,3.7
		c-0.6-2-1.3-4.1-1.9-6.1C91.7-8.2,93.2-9.2,94.7-10.3z"/>
	<path class="st1" d="M95,12c-1.9-0.2-3.8-0.4-5.7-0.6c-0.7-2.2-1.4-4.4-2.1-6.6c-0.7,2.1-1.4,4.2-2.1,6.3c-1.9-0.1-3.8-0.2-5.7-0.2
		c1.5,1.3,3,2.5,4.5,3.8c-0.6,1.9-1.3,3.9-1.9,5.8c1.7-1,3.4-2,5.2-2.9c1.7,1.2,3.4,2.4,5.1,3.7c-0.6-2-1.3-4.1-1.9-6.1
		C92,14.1,93.5,13,95,12z"/>
	<g class="st1">
		<path d="M185.7,23.4c-18.1,0-36.3-4.5-54-8.9l-2-0.5c-0.9-0.2-1.5-1-1.5-1.9v-25.5c0-0.6,0.3-1.2,0.8-1.5s1.1-0.5,1.7-0.4l2,0.5
			c17.4,4.3,35.4,8.8,53,8.8c13.1,0,24.8-2.4,35.8-7.4c0.6-0.3,1.3-0.2,1.9,0.1c0.6,0.4,0.9,1,0.9,1.6v25.5c0,0.8-0.4,1.5-1.1,1.8
			C211.6,20.8,199.3,23.4,185.7,23.4z M132.2,10.6l0.5,0.1c17.4,4.3,35.4,8.8,53,8.8c12.6,0,24-2.3,34.7-6.9V-8.7
			c-10.7,4.4-22.1,6.6-34.7,6.6c-17.9,0-36-4.4-53.5-8.8L132.2,10.6L132.2,10.6z"/>
	</g>
	<path class="st1" d="M185.7,110.2c-18.1,0-36.3-4.5-54-8.9c-17.4-4.3-35.4-8.8-53-8.8c-13.1,0-24.8,2.4-35.8,7.4
		c-0.6,0.3-1.3,0.2-1.9-0.1c-0.6-0.4-0.9-1-0.9-1.6V77.4c0-0.8,0.4-1.5,1.1-1.8c11.5-5.2,23.8-7.8,37.4-7.8c18.1,0,36.3,4.5,54,8.9
		c17.4,4.3,35.4,8.8,53,8.8c13.1,0,24.8-2.4,35.8-7.4c0.6-0.3,1.3-0.2,1.9,0.1c0.6,0.4,0.9,1,0.9,1.6v20.9c0,0.8-0.4,1.5-1.1,1.8
		C211.6,107.7,199.3,110.2,185.7,110.2z M78.7,88.7c18.1,0,36.3,4.5,54,8.9c17.4,4.3,35.4,8.8,53,8.8c12.6,0,24-2.3,34.7-6.9V82.7
		c-10.7,4.4-22.1,6.6-34.7,6.6c-18.1,0-36.3-4.5-54-8.9c-17.4-4.3-35.4-8.8-53-8.8c-12.6,0-24,2.3-34.7,6.9v16.7
		C54.7,90.8,66.1,88.7,78.7,88.7z"/>
</g>
<g class="st0">
	<g class="st1">
		<path d="M165.2,157.9H96.8c-1.1,0-2-0.9-2-2V26.1c0-34.9,21-70.3,36.1-70.3s36.1,35.4,36.1,70.3v129.8
			C167.1,157,166.2,157.9,165.2,157.9z M98.8,154h64.4V26.1c0-33.6-20.4-66.4-32.2-66.4S98.8-7.4,98.8,26.1L98.8,154L98.8,154z"/>
	</g>
	<g class="st1">
		<path d="M165.2,226.2h-20.5c-1.1,0-2-0.9-2-2v-13.7c0-1.1,0.9-2,2-2h13.7c0.7,0,1.4,0.4,1.7,1.1l6.8,13.7c0.3,0.6,0.3,1.3-0.1,1.9
			C166.5,225.8,165.8,226.2,165.2,226.2z M146.6,222.3H162l-4.9-9.7h-10.5V222.3z"/>
	</g>
	<g class="st1">
		<path d="M165.2,198.9c-0.5,0-0.9-0.2-1.3-0.5c-0.4-0.4-0.7-0.9-0.7-1.5v-13.7c0-1,0.7-1.8,1.7-1.9l88.8-13.7
			c0.6-0.1,1.1,0.1,1.6,0.4c0.4,0.4,0.7,0.9,0.7,1.5v13.7c0,1-0.7,1.8-1.7,1.9l-88.8,13.7C165.4,198.8,165.3,198.9,165.2,198.9z
			 M167.1,184.9v9.7l84.9-13.1v-9.7L167.1,184.9z"/>
	</g>
	<g class="st1">
		<path d="M96.8,185.2c-0.1,0-0.2,0-0.3,0L7.7,171.5c-1-0.1-1.7-1-1.7-1.9v-27.3c0-0.6,0.2-1.1,0.6-1.5l68-61.2L95,25.4
			c0.3-0.9,1.2-1.4,2.2-1.2c0.9,0.2,1.6,1,1.6,1.9V154h4.9c0.8,0,1.5,0.5,1.8,1.2c0.3,0.7,0.1,1.6-0.4,2.1
			c-0.1,0.1-6.3,6.5-6.3,19.1v6.8c0,0.6-0.2,1.1-0.7,1.5C97.7,185,97.3,185.2,96.8,185.2z M10,167.9l84.9,13.1v-4.5
			c0-8.9,2.7-15.1,4.9-18.5h-2.9c-1.1,0-2-0.9-2-2v-119L78.2,81.5c-0.1,0.3-0.3,0.6-0.5,0.8L10,143.1V167.9z"/>
	</g>
	<g class="st1">
		<path d="M144.7,233h-27.3c-0.6,0-1.2-0.3-1.6-0.8c-0.4-0.5-0.5-1.2-0.3-1.8l6.8-20.5c0.1-0.3,0.3-0.6,0.5-0.8l6.8-6.8
			c0.7-0.7,2-0.7,2.8,0l6.8,6.8c0.2,0.2,0.4,0.5,0.5,0.8l6.8,20.5c0.2,0.6,0.1,1.3-0.3,1.8C145.9,232.7,145.3,233,144.7,233z
			 M120,229.1H142l-5.8-17.5l-5.1-5.1l-5.1,5.1L120,229.1z"/>
	</g>
	<g class="st1">
		<path d="M117.3,226.2H96.8c-0.7,0-1.3-0.4-1.7-0.9s-0.4-1.3-0.1-1.9l6.8-13.7c0.3-0.7,1-1.1,1.7-1.1h13.7c1.1,0,2,0.9,2,2v13.7
			C119.3,225.3,118.4,226.2,117.3,226.2z M100,222.3h15.4v-9.7h-10.5L100,222.3z"/>
	</g>
	<g class="st1">
		<path d="M144.7-0.2h-27.3c-4.3,0-7.8-3.5-7.8-7.8c0-4.3,3.5-7.8,7.8-7.8h27.3c4.3,0,7.8,3.5,7.8,7.8C152.5-3.7,149-0.2,144.7-0.2z
			 M117.3-13.9c-3.2,0-5.9,2.6-5.9,5.9c0,3.2,2.6,5.9,5.9,5.9h27.3c3.2,0,5.9-2.6,5.9-5.9c0-3.2-2.6-5.9-5.9-5.9H117.3z"/>
	</g>
	<g class="st1">
		<path d="M96.8,198.9c-0.1,0-0.2,0-0.3,0L7.7,185.2c-1-0.1-1.7-1-1.7-1.9v-13.7c0-0.6,0.2-1.1,0.7-1.5c0.4-0.4,1-0.5,1.6-0.4
			l88.8,13.7c1,0.1,1.7,1,1.7,1.9v13.7c0,0.6-0.2,1.1-0.7,1.5C97.7,198.7,97.3,198.9,96.8,198.9z M10,181.6l84.9,13.1v-9.7L10,171.8
			L10,181.6L10,181.6z"/>
	</g>
	<g class="st1">
		<path d="M124.2,212.5H96.8c-1.1,0-2-0.9-2-2v-34.2c0-14.3,7.1-21.6,7.4-21.9c0.4-0.4,0.9-0.6,1.4-0.6H131c1.1,0,2,0.9,2,2
			c0,1.1-0.9,2-2,2c-2.7,0-4.9,2.2-4.9,4.9v34.1c0,2.7,2.2,4.9,4.9,4.9c0.8,0,1.5,0.5,1.8,1.2c0.3,0.7,0.1,1.6-0.4,2.1l-6.8,6.8
			C125.2,212.3,124.7,212.5,124.2,212.5z M98.8,208.6h24.6l3.8-3.8c-2.9-1.4-5-4.4-5-7.9v-34.1c0-1.8,0.5-3.5,1.5-4.9h-19.1
			c-1.5,1.8-5.8,8.1-5.8,18.5L98.8,208.6L98.8,208.6z"/>
	</g>
	<g class="st1">
		<path d="M165.2,212.5h-27.3c-0.5,0-1-0.2-1.4-0.6l-6.8-6.8c-0.6-0.6-0.7-1.4-0.4-2.1c0.3-0.7,1-1.2,1.8-1.2c2.7,0,4.9-2.2,4.9-4.9
			v-34.1c0-2.7-2.2-4.9-4.9-4.9c-1.1,0-2-0.9-2-2c0-1.1,0.9-2,2-2h27.3c0.5,0,1,0.2,1.4,0.6c0.3,0.3,7.4,7.6,7.4,21.9v34.2
			C167.1,211.6,166.2,212.5,165.2,212.5z M138.6,208.6h24.6v-32.2c0-10.5-4.3-16.7-5.8-18.5h-19.1c0.9,1.4,1.5,3.1,1.5,4.9v34.1
			c0,3.5-2,6.5-5,7.9L138.6,208.6z"/>
	</g>
	<g class="st1">
		<path d="M165.2,185.2c-0.5,0-0.9-0.2-1.3-0.5c-0.4-0.4-0.7-0.9-0.7-1.5v-6.8c0-12.7-6.2-19-6.3-19.1c-0.6-0.6-0.7-1.4-0.4-2.1
			c0.3-0.7,1-1.2,1.8-1.2h4.9V26.1c0-0.9,0.7-1.8,1.6-1.9c0.9-0.2,1.8,0.4,2.2,1.2l20.3,54.2l68,61.2c0.4,0.4,0.6,0.9,0.6,1.5v27.3
			c0,1-0.7,1.8-1.7,1.9l-88.8,13.7C165.4,185.2,165.3,185.2,165.2,185.2z M162.2,157.9c2.1,3.5,4.9,9.6,4.9,18.5v4.5l84.9-13.1
			v-24.8l-67.7-60.9c-0.2-0.2-0.4-0.5-0.5-0.8l-16.7-44.6v119c0,1.1-0.9,2-2,2L162.2,157.9L162.2,157.9z"/>
	</g>
</g>
<g class="st0">
	<g class="st1">
		<circle cx="131" cy="94.4" r="115.2"/>
		<path d="M131,211.6C66.4,211.6,13.8,159,13.8,94.4C13.8,29.8,66.4-22.7,131-22.7c64.6,0,117.2,52.6,117.2,117.2
			S195.6,211.6,131,211.6z M131-18.8C68.5-18.8,17.7,32,17.7,94.4c0,62.5,50.8,113.3,113.3,113.3c62.5,0,113.3-50.8,113.3-113.3
			C244.2,32,193.4-18.8,131-18.8z"/>
	</g>
	<path class="st1" d="M131,183.4c-1.5,0-147.4-0.2-147.4-16.4c0-3.3,4.4-5.7,14.7-7.9c16.4-3.6,47.1-6.4,84.1-7.7
		c15.6-0.5,31.9-0.8,48.7-0.8c1.5,0,147.4,0.2,147.4,16.4C278.4,183.2,132.5,183.4,131,183.4z M131,154.5c-16.7,0-33,0.3-48.5,0.8
		c-36.8,1.3-67.2,4.1-83.4,7.6c-10.6,2.3-11.6,4.2-11.6,4.2c2.4,4.9,54.9,12.3,143.5,12.3s141.1-7.5,143.5-12.6
		C272.1,161.9,219.6,154.5,131,154.5z"/>
	<g class="st1">
		<path d="M29.7,177.8c0,4.8-3.9,8.6-8.6,8.6c-4.8,0-8.6-3.9-8.6-8.6c0-4.8,3.9-8.6,8.6-8.6C25.8,169.2,29.7,173.1,29.7,177.8z"/>
		<path d="M21.1,187.4c-5.3,0-9.6-4.3-9.6-9.6c0-5.3,4.3-9.6,9.6-9.6c5.3,0,9.6,4.3,9.6,9.6C30.7,183.1,26.3,187.4,21.1,187.4z
			 M21.1,170.2c-4.2,0-7.6,3.4-7.6,7.6c0,4.2,3.4,7.6,7.6,7.6c4.2,0,7.6-3.4,7.6-7.6C28.7,173.6,25.3,170.2,21.1,170.2z"/>
	</g>
	<g class="st1">
		<circle cx="170.3" cy="181.7" r="12.5"/>
		<path d="M170.3,195.1c-7.4,0-13.5-6-13.5-13.5c0-7.4,6-13.5,13.5-13.5c7.4,0,13.5,6,13.5,13.5
			C183.8,189.1,177.7,195.1,170.3,195.1z M170.3,170.2c-6.3,0-11.5,5.2-11.5,11.5c0,6.3,5.2,11.5,11.5,11.5
			c6.3,0,11.5-5.2,11.5-11.5C181.8,175.3,176.7,170.2,170.3,170.2z"/>
	</g>
	<g class="st1">
		<path d="M249.5,178.1c0,4.9-4,8.9-8.9,8.9c-4.9,0-8.9-4-8.9-8.9c0-4.9,4-8.9,8.9-8.9C245.6,169.2,249.5,173.2,249.5,178.1z"/>
		<path d="M240.7,188.9c-6,0-10.8-4.9-10.8-10.8s4.9-10.8,10.8-10.8c6,0,10.8,4.9,10.8,10.8S246.6,188.9,240.7,188.9z M240.7,171.2
			c-3.8,0-6.9,3.1-6.9,6.9s3.1,6.9,6.9,6.9c3.8,0,6.9-3.1,6.9-6.9S244.5,171.2,240.7,171.2z"/>
	</g>
	<g class="st1">
		<path d="M220.1,167.5c16.3-19.9,26.1-45.3,26.1-73c0-63.6-51.6-115.2-115.2-115.2C67.4-20.8,15.8,30.8,15.8,94.4
			c0,27.7,9.8,53.1,26.1,73"/>
		<path d="M220.1,169.4c-0.4,0-0.9-0.1-1.2-0.4c-0.8-0.7-1-1.9-0.3-2.8c16.6-20.2,25.7-45.7,25.7-71.8C244.2,32,193.4-18.8,131-18.8
			C68.5-18.8,17.7,32,17.7,94.4c0,26.1,9.1,51.6,25.7,71.8c0.7,0.8,0.6,2.1-0.3,2.8c-0.8,0.7-2.1,0.6-2.8-0.3
			c-17.1-20.9-26.5-47.2-26.5-74.3C13.8,29.8,66.4-22.7,131-22.7c64.6,0,117.2,52.6,117.2,117.2c0,27-9.4,53.4-26.6,74.3
			C221.2,169.2,220.7,169.4,220.1,169.4z"/>
	</g>
	<g class="st1">
		<circle cx="85.1" cy="180.8" r="19"/>
		<path d="M85.1,200.8c-11,0-20-9-20-20c0-11,9-20,20-20c11,0,20,9,20,20C105.1,191.8,96.1,200.8,85.1,200.8z M85.1,162.7
			c-10,0-18.1,8.1-18.1,18.1c0,10,8.1,18.1,18.1,18.1c10,0,18.1-8.1,18.1-18.1C103.1,170.8,95,162.7,85.1,162.7z"/>
	</g>
</g>
<g class="st0">
	<g class="st1">
		<line class="st2" x1="-16.6" y1="169.1" x2="281" y2="169.1"/>
		<path class="st3" d="M-17.4,169.1c9.1,0,38.9-21.4,44.9-21.4c6.1,0,18-5.4,21-10.7c3-5.4,23.1-10.7,26.1-16.1
			c3-5.4,20.6,5.4,23.7,5.4c3,0,21.3,10.7,24.3,10.7c3,0,22.6-10.7,25.6-10.7c3,0,15.3,5.4,21.4,5.4c6.1,0,20.2,0,23.3,5.4
			s26.8-10.7,32.9,10.7c6.1,21.4,32.1,10.7,35.2,16.1c3,5.4,20,5.4,20,5.4"/>
		<path class="st3" d="M-18.2,169.1c18.2,0,33.1-42.9,45.2-42.9c12.1,0,13.5-10.7,19.6-21.5C52.7,94,62.7,83.3,68.7,72.6
			c6.1-10.7,19.4,10.7,25.5,10.7c6.1,0,19.7,21.4,25.8,21.4c6.1,0,20.4-21.4,26.4-21.4c6.1,0,12.2,10.7,24.3,10.7s19.2,0,25.3,10.7
			c6.1,10.7,18-21.4,30.1,21.5c12.1,42.9,25.2,21.5,31.2,32.2c6.1,10.7,23.7,10.7,23.7,10.7"/>
		<path class="st3" d="M-19,169.1c27.3,0,27.3-64.4,45.4-64.4c18.2,0,9.1-16.1,18.2-32.2c9.1-16.1,9.1-32.2,18.2-48.3
			C71.9,8.2,81,40.4,90.1,40.4c9.1,0,18.2,32.2,27.3,32.2c9.1,0,18.2-32.2,27.3-32.2c9.1,0,9.1,16.1,27.3,16.1s18.2,0,27.3,16.1
			c9.1,16.1,9.1-32.2,27.3,32.2c18.2,64.4,18.2,32.2,27.3,48.3c9.1,16.1,27.3,16.1,27.3,16.1"/>
	</g>
	<rect x="72.8" y="-84.9" class="st4" width="197.3" height="67.3"/>
	<text transform="matrix(1 0 0 1 72.7625 -51.5825)" class="st1" style="font-family:'MyriadPro-Regular'; font-size:46.9074px;">faire qqch</text>
</g>
<g class="st0">
	<g class="st1">
		<path d="M131,225C60.8,225,3.7,166.4,3.7,94.4c0-72,57.1-130.6,127.3-130.6c0.4,0,0.9,0,1.3,0l0.8,0c18.1,2.6,33.2,37.3,38.8,88.6
			c49.9,5.8,83.7,21.2,86.3,39.6l0,0.9c0,0.5,0,1,0,1.5C258.3,166.4,201.2,225,131,225z M131-32.3C63-32.3,7.6,24.6,7.6,94.4
			C7.6,164.3,63,221.1,131,221.1c68,0,123.4-56.8,123.4-126.7c0-0.4,0-0.9,0-1.3l0-0.7c-2.3-16.2-36.2-30.9-84.4-36.2
			c-0.9-0.1-1.6-0.8-1.7-1.7c-5.2-49.5-19.4-84.3-35.4-86.7l-0.6,0C131.8-32.3,131.4-32.3,131-32.3z"/>
	</g>
	<g class="st1">
		<path d="M91.9,136.5c-1,0-1.8-0.7-1.9-1.8c-1.4-13.1-2.1-26.6-2.1-40.3c0-3.2,0-6.3,0.1-9.4l0.1-1.8c0.1-3.1,0.2-6.2,0.4-9.3
			c0.2-3.5,0.4-6.7,0.6-9.9C93.8,4,110.6-36.2,131-36.2c19.2,0,35.3,35.4,41,90.3c0.1,1.1-0.7,2-1.7,2.1c-1.1,0.1-2-0.7-2.1-1.7
			c-5.3-51.1-20.6-86.8-37.1-86.8c-17.7,0-33.6,40.5-38,96.3c-0.3,3.3-0.5,6.5-0.6,9.7c-0.2,3.3-0.3,6.4-0.4,9.5L92,85.1
			c-0.1,3.1-0.1,6.2-0.1,9.4c0,13.5,0.7,27,2,39.9c0.1,1.1-0.7,2-1.7,2.1C92.1,136.5,92,136.5,91.9,136.5z"/>
	</g>
	<path class="st5" d="M170,54.5"/>
	<g class="st1">
		<path d="M131,138.8c-13.4,0-26.6-0.7-39.3-2.1c-0.7-0.1-1.4-0.6-1.6-1.3c-0.3-0.7-0.1-1.5,0.4-2l21-21.6c0.8-0.8,2-0.8,2.8,0
			c0.8,0.8,0.8,2,0,2.8l-18.2,18.7c14.2,1.4,29.3,1.9,44,1.6l1.7-0.1c3-0.1,6-0.2,9-0.4c0,0,0.4,0,0.4,0c3-0.2,6.1-0.4,9.1-0.6
			c54.5-4.5,94-20.9,94-39.1c0-17-34.8-32.7-84.5-38.2c-1.1-0.1-1.8-1.1-1.7-2.2c0.1-1.1,1.1-1.8,2.2-1.7c52.6,5.8,88,22.7,88,42
			c0,20.6-40,38.2-97.4,42.9c-3.3,0.3-6.4,0.5-9.6,0.7c0,0-0.4,0-0.4,0c-2.9,0.2-5.9,0.3-9,0.4l-1.7,0.1
			C137.2,138.7,134.1,138.8,131,138.8z"/>
	</g>
	<g class="st1">
		<g>
			<path d="M128.9,114.9c-5.8,0-11.5-0.3-17-0.9c-0.5-0.1-0.8-0.4-0.9-0.9c-0.6-5.7-0.9-11.6-0.9-17.4c0-1.4,0-2.7,0.1-4.1
				c0-0.2,0-0.5,0-0.8c0-1.3,0.1-2.7,0.2-4c0.1-1.5,0.2-2.9,0.3-4.3c1.8-22.4,7.9-45,17.8-45c31.7,0.1,57.4,27,57.4,60
				c0,0.3,0,0.4,0,0.5h0c0,0.3,0,0.5,0,0.8c-0.7,4.8-20.7,13.7-44,15.6c-0.1,0-0.2,0-0.2,0c-1.3,0.1-2.6,0.2-4,0.3
				c-1.2,0.1-2.3,0.1-3.4,0.2l-1.4,0C131.6,114.9,130.2,114.9,128.9,114.9z M112.9,112.1c6.5,0.7,13.4,0.9,19.9,0.8l1.3,0
				c1.1,0,2.2-0.1,3.3-0.1c1.5-0.1,2.8-0.2,4.1-0.3c0.1,0,0.1,0,0.1,0c24.7-2,41.8-11.1,42.2-13.8l0-0.4c0-0.2,0-0.5,0-0.7
				c0-31.9-24.9-57.9-55.5-58c-7.2,0-13.9,18.1-15.8,43.1c-0.1,1.4-0.2,2.8-0.3,4.2c-0.1,1.5-0.1,2.8-0.2,4.1c0,0.3,0,0.5,0,0.7
				c0,1.4-0.1,2.7-0.1,4.1C112.1,101.2,112.4,106.7,112.9,112.1z"/>
		</g>
	</g>
</g>
<g class="st0">
	<g class="st1">
		<path d="M162.3-9.3c0,0-0.1,0-0.1,0l-62.3-8.1c-0.5-0.1-0.9-0.5-0.9-1v-13.5c0-0.3,0.1-0.6,0.3-0.7c0.2-0.2,0.5-0.3,0.8-0.2
			l62.3,8.1c0.5,0.1,0.9,0.5,0.9,1v13.5c0,0.3-0.1,0.6-0.3,0.7C162.8-9.3,162.5-9.3,162.3-9.3z M101-19.2l60.3,7.9v-11.6L101-30.8
			V-19.2z"/>
	</g>
	<g class="st1">
		<path d="M162.3,20.4c0,0-0.1,0-0.1,0l-62.3-7.6c-0.5-0.1-0.9-0.5-0.9-1V-1.7c0-0.3,0.1-0.5,0.3-0.7c0.2-0.2,0.5-0.3,0.8-0.2
			l62.3,7.6c0.5,0.1,0.9,0.5,0.9,1v13.5c0,0.3-0.1,0.5-0.3,0.7C162.8,20.3,162.5,20.4,162.3,20.4z M101,10.9l60.3,7.3V6.8L101-0.6
			V10.9z"/>
	</g>
	<g class="st1">
		<path d="M157.6,50.7c0,0-0.1,0-0.1,0l-55.3-7.4c-0.4-0.1-0.7-0.3-0.8-0.7c-1.2-4.4-1.9-9.1-2.2-14c0-0.3,0.1-0.6,0.3-0.8
			c0.2-0.2,0.5-0.3,0.8-0.3l61.1,8.1c0.3,0,0.5,0.2,0.7,0.4c0.2,0.2,0.2,0.5,0.2,0.7c-0.8,4.5-2,9-3.7,13.2
			C158.4,50.4,158,50.7,157.6,50.7z M103.1,41.4l53.9,7.2c1.4-3.6,2.4-7.3,3.1-11.1l-58.9-7.9C101.5,33.7,102.1,37.6,103.1,41.4z"/>
	</g>
	<g class="st1">
		<path d="M139.6,78.1c0,0-0.1,0-0.1,0l-18.9-2.4c-0.2,0-0.4-0.1-0.6-0.3c-4.6-5.2-8.2-10.1-11.1-15c-0.2-0.3-0.2-0.7,0-1
			c0.2-0.3,0.6-0.5,0.9-0.4l39.8,5c0.3,0,0.6,0.3,0.8,0.6c0.1,0.3,0.1,0.7-0.1,1c-2.8,4-6.1,8.1-10,12.4
			C140.1,78,139.8,78.1,139.6,78.1z M121.2,73.8l18,2.3c3.3-3.6,6.1-7,8.6-10.5l-36.2-4.6C114.1,65.2,117.3,69.4,121.2,73.8z"/>
	</g>
	<g class="st1">
		<path d="M155.4,140.4c-0.1,0-0.1,0-0.1,0l-44.9-6.6c-0.1,0-0.2-0.1-0.3-0.1c-0.3,0-0.5-0.2-0.7-0.5c-0.1-0.3,0-0.7,0.2-1
			c2.7-3.8,6-7.8,10.2-12.1c0.2-0.2,0.6-0.3,0.9-0.3l24.2,3.8c0.2,0,0.4,0.1,0.6,0.3c4.7,5.3,8.3,10.2,10.9,15
			c0.2,0.3,0.2,0.7-0.1,1C156,140.3,155.7,140.4,155.4,140.4z M112.1,132.1l41.5,6.1c-2.4-4.1-5.5-8.2-9.5-12.7l-23.3-3.6
			C117.3,125.5,114.5,128.9,112.1,132.1z"/>
	</g>
	<g class="st1">
		<path d="M162,171.4c0,0-0.1,0-0.1,0l-62.2-8.3c-0.5-0.1-0.9-0.5-0.8-1c0.2-4.7,1-9.2,2.4-13.5c0.1-0.4,0.6-0.7,1.1-0.7l59.2,8
			c0.4,0.1,0.8,0.4,0.8,0.8c0.4,2.8,0.6,5.4,0.6,8.1v5.6c0,0.3-0.1,0.6-0.3,0.7C162.5,171.3,162.2,171.4,162,171.4z M100.9,161.3
			l60.2,8.1v-4.5c0-2.4-0.2-4.7-0.5-7.1l-57.7-7.7C101.8,153.6,101.1,157.4,100.9,161.3z"/>
	</g>
	<g class="st1">
		<path d="M161.8,202.3c-0.1,0-0.1,0-0.1,0l-62-9.6c-0.5-0.1-0.8-0.5-0.8-1v-13.6c0-0.3,0.1-0.6,0.3-0.7c0.2-0.2,0.5-0.3,0.8-0.2
			l62.3,9.7c0.5,0.1,0.8,0.5,0.8,1l-0.3,13.5c0,0.3-0.1,0.6-0.4,0.7C162.2,202.3,162,202.3,161.8,202.3z M100.7,190.9l60.1,9.3
			l0.2-11.6l-60.3-9.4V190.9z"/>
	</g>
	<g class="st1">
		<path d="M164.2,232c0,0-0.1,0-0.1,0l-64.4-8.6c-0.5-0.1-0.8-0.5-0.8-1v-13.5c0-0.3,0.1-0.6,0.3-0.7c0.2-0.2,0.5-0.3,0.8-0.2
			l62.3,8.4c0.5,0.1,0.8,0.5,0.8,1v7.9c0,1.9,0.7,3.7,1.9,5.2c0.3,0.3,0.3,0.7,0.1,1.1C164.8,231.9,164.5,232,164.2,232z
			 M100.7,221.6l61.5,8.2c-0.7-1.4-1.1-3-1.1-4.6v-7.1l-60.3-8.1V221.6z"/>
	</g>
	<g class="st1">
		<path d="M90.8,236.1c-6,0-10.9-4.9-10.9-10.9v-60.4c0-33.8,21-53.4,41.4-72.4c20.1-18.9,39.1-36.6,39.1-68.4v-60.4
			c0-6,4.9-10.9,10.9-10.9c6,0,10.9,4.9,10.9,10.9V24c0,41.3-24.4,64.1-46,84.3c-18.5,17.3-34.5,32.2-34.5,56.5v60.4
			C101.7,231.2,96.8,236.1,90.8,236.1z M171.2-43.3c-3.8,0-7,3.1-7,7V24c0,33.5-19.6,51.8-40.3,71.2c-19.8,18.5-40.2,37.6-40.2,69.6
			v60.4c0,3.8,3.1,7,7,7c3.9,0,7-3.1,7-7v-60.3c0-26,16.5-41.5,35.7-59.4c21-19.7,44.8-41.9,44.8-81.5v-60.4
			C178.2-40.2,175.1-43.3,171.2-43.3z"/>
	</g>
	<g class="st1">
		<g>
			<path d="M118,100.1c-0.5,0-1-0.2-1.3-0.5C97.5,81,79.9,59,79.9,24v-60.4c0-6,4.9-10.9,10.9-10.9s10.9,4.9,10.9,10.9V24
				c0,28.4,15.2,45.4,30.7,60.4c0.4,0.4,0.6,0.9,0.6,1.4c0,0.5-0.2,1-0.6,1.4c-2.8,2.7-5.6,5.3-8.4,8l-4.6,4.3
				C119,99.9,118.5,100.1,118,100.1z M90.8-43.3c-3.9,0-7,3.1-7,7V24c0,32.7,16.3,53.7,34.3,71.4l3.2-3c2.3-2.2,4.7-4.4,6.9-6.6
				C112.6,70.6,97.8,53,97.8,24v-60.4C97.8-40.2,94.6-43.3,90.8-43.3z"/>
		</g>
		<g>
			<path d="M171.2,236.1c-6,0-10.9-4.9-10.9-10.9v-60.4c0-22.3-13.3-36.6-30.7-53c-0.4-0.4-0.6-0.9-0.6-1.4s0.2-1.1,0.6-1.4
				c1.3-1.2,2.5-2.4,3.8-3.6c3-2.8,6.1-5.7,9.2-8.7c0.8-0.7,1.9-0.7,2.7,0c19.4,18.3,36.8,37.3,36.8,68.1v60.4
				C182.1,231.2,177.2,236.1,171.2,236.1z M133.8,110.5c17.3,16.4,30.4,31.2,30.4,54.4v60.4c0,3.8,3.1,7,7,7c3.9,0,7-3.1,7-7v-60.4
				c0-28.6-16-46.7-34.2-64c-2.7,2.5-5.3,5-7.9,7.5C135.4,109.1,134.6,109.8,133.8,110.5z"/>
		</g>
	</g>
</g>
<g class="st0">
	<g class="st1">
		<g>
			<path d="M206.6,130.2H55c-13.5,0-17.1-11.2-17.1-17.1V52.5c0-13.5,11.2-17.1,17.1-17.1h5.8c0.7-3.3,3.1-7.6,9.3-7.6h15.2
				c6.2,0,8.7,4.2,9.3,7.6h5.8c3,0,6.6-3.6,10-7c4-4,8.1-8.1,12.7-8.1h30.4c4.6,0,8.7,4.1,12.7,8.1c3.5,3.5,7,7,10,7h30.3
				c8.7,0,17.1,8.5,17.1,17.1v60.7C223.8,126.6,212.6,130.2,206.6,130.2z M55,39.2c-0.5,0-13.2,0.2-13.2,13.2v60.7
				c0,0.5,0.2,13.2,13.2,13.2h151.7c0.5,0,13.2-0.2,13.2-13.2V52.5c0-6.5-6.7-13.2-13.2-13.2h-30.3c-4.6,0-8.8-4.2-12.8-8.2
				c-3.4-3.4-7-7-10-7h-30.4c-3,0-6.5,3.6-10,7c-4,4-8.2,8.2-12.8,8.2h-7.6c-1.1,0-2-0.9-2-2c0-0.9-0.3-5.6-5.6-5.6H70.1
				c-5.4,0-5.6,5-5.6,5.6c0,1.1-0.9,2-2,2H55z"/>
		</g>
		<g>
			<line class="st6" x1="62.6" y1="37.3" x2="92.9" y2="37.3"/>
			<path d="M92.9,39.2H62.6c-1.1,0-2-0.9-2-2c0-1.1,0.9-2,2-2h30.3c1.1,0,2,0.9,2,2C94.8,38.4,94,39.2,92.9,39.2z"/>
		</g>
		<g>
			<path d="M149.8,38.3H127c-2.6,0-4.8-2.1-4.8-4.8c0-2.6,2.1-4.8,4.8-4.8h22.8c2.6,0,4.8,2.1,4.8,4.8
				C154.6,36.1,152.4,38.3,149.8,38.3z M127,30.7c-1.6,0-2.8,1.3-2.8,2.8s1.3,2.8,2.8,2.8h22.8c1.6,0,2.8-1.3,2.8-2.8
				s-1.3-2.8-2.8-2.8H127z"/>
		</g>
		<g>
			<path d="M130.8,121.2c-21.2,0-38.4-17.2-38.4-38.4c0-21.2,17.2-38.4,38.4-38.4c21.2,0,38.4,17.2,38.4,38.4
				C169.3,104,152,121.2,130.8,121.2z M130.8,48.3c-19,0-34.5,15.5-34.5,34.5c0,19,15.5,34.5,34.5,34.5c19,0,34.5-15.5,34.5-34.5
				C165.3,63.7,149.9,48.3,130.8,48.3z"/>
		</g>
		<g>
			<path d="M130.8,110.3c-15.2,0-27.5-12.3-27.5-27.5s12.3-27.5,27.5-27.5c15.2,0,27.5,12.3,27.5,27.5
				C158.4,98,146,110.3,130.8,110.3z M130.8,57.2c-14.1,0-25.6,11.5-25.6,25.6c0,14.1,11.5,25.6,25.6,25.6
				c14.1,0,25.6-11.5,25.6-25.6C156.4,68.7,144.9,57.2,130.8,57.2z"/>
		</g>
		<g>
			<path d="M111.9,87.5c-0.5,0-1-0.4-1-1c0-13.1,10.6-23.7,23.7-23.7c0.5,0,1,0.4,1,1c0,0.5-0.4,1-1,1c-12,0-21.8,9.8-21.8,21.8
				C112.9,87.1,112.4,87.5,111.9,87.5z"/>
		</g>
	</g>
	<g class="st1">
		<path d="M13.2,137.7c-5.5,0-15.9-3.3-15.9-15.9V52c0-12.6,10.4-15.9,15.9-15.9c12.6,0,15.9,10.4,15.9,15.9v69.8
			C29.1,134.4,18.7,137.7,13.2,137.7z M13.2,40c-1.2,0-12,0.4-12,12v69.8c0,11.6,10.7,12,12,12c1.3,0,12-0.4,12-12V52
			C25.2,50.8,24.8,40,13.2,40z"/>
	</g>
	<g class="st1">
		<path d="M248.8,137.3c-5.5,0-15.9-3.3-15.9-15.9V51.6c0-12.6,10.4-15.9,15.9-15.9c12.6,0,15.9,10.4,15.9,15.9v69.8
			C264.7,134,254.3,137.3,248.8,137.3z M248.8,39.6c-1.2,0-12,0.4-12,12v69.8c0,11.8,11.4,12,12,12c1.2,0,12-0.4,12-12V51.6
			C260.7,50.4,260.4,39.6,248.8,39.6z"/>
	</g>
	<path class="st1" d="M130.8,12.6c-0.5,0-1-0.4-1-1v-26.7c0-0.5,0.4-1,1-1c0.5,0,1,0.4,1,1v26.7C131.8,12.1,131.4,12.6,130.8,12.6z"
		/>
	<path class="st1" d="M130.8-14.1c-3.8,0-6.9-3.1-6.9-6.9c0-3.8,3.1-6.9,6.9-6.9c3.8,0,6.9,3.1,6.9,6.9
		C137.7-17.2,134.6-14.1,130.8-14.1z M130.8-25.9c-2.7,0-4.9,2.2-4.9,4.9s2.2,4.9,4.9,4.9c2.7,0,4.9-2.2,4.9-4.9
		C135.7-23.7,133.5-25.9,130.8-25.9z"/>
	<g class="st1">
		<path d="M182.1,216.7c-12,0-21.4-16.2-21.4-36.9c0-20.7,9.4-36.9,21.4-36.9c12,0,21.4,16.2,21.4,36.9
			C203.5,200.5,194.1,216.7,182.1,216.7z M182.1,146.9c-9.5,0-17.5,15.1-17.5,33c0,17.9,8,33,17.5,33s17.5-15.1,17.5-33
			C199.6,162,191.6,146.9,182.1,146.9z"/>
	</g>
	<ellipse class="st1" cx="182.1" cy="179.8" rx="5.8" ry="10.4"/>
	<g class="st1">
		<path d="M98.9,216.7c-12,0-21.4-16.2-21.4-36.9c0-20.7,9.4-36.9,21.4-36.9c12,0,21.4,16.2,21.4,36.9
			C120.3,200.5,110.9,216.7,98.9,216.7z M98.9,146.9c-9.5,0-17.5,15.1-17.5,33c0,17.9,8,33,17.5,33c9.5,0,17.5-15.1,17.5-33
			C116.4,162,108.4,146.9,98.9,146.9z"/>
	</g>
	<ellipse class="st1" cx="98.9" cy="179.8" rx="5.8" ry="10.4"/>
	<g class="st1">
		<g>
			<path d="M182.1,216.7h-19.5c-12,0-21.4-16.2-21.4-36.9c0-20.7,9.4-36.9,21.4-36.9h19.5c1.1,0,2,0.9,2,2c0,1.1-0.9,2-2,2
				c-9.5,0-17.5,15.1-17.5,33c0,17.9,8,33,17.5,33c1.1,0,2,0.9,2,2C184,215.9,183.1,216.7,182.1,216.7z M162.6,146.9
				c-9.5,0-17.5,15.1-17.5,33c0,17.9,8,33,17.5,33h9.7c-7-6-11.7-18.4-11.7-33c0-14.6,4.7-27,11.7-33L162.6,146.9L162.6,146.9z"/>
		</g>
		<g>
			<polygon points="182.1,214.8 182.1,214.8 182.1,214.8 			"/>
			<path d="M182.1,216.7L182.1,216.7c-1.1,0-2-0.9-2-2c0-1.1,0.9-2,2-2s2,0.9,2,2C184,215.9,183.2,216.7,182.1,216.7z"/>
		</g>
	</g>
	<g class="st1">
		<g>
			<path d="M98.9,216.7H79.4c-12,0-21.4-16.2-21.4-36.9c0-20.7,9.4-36.9,21.4-36.9h19.5c1.1,0,2,0.9,2,2c0,1.1-0.9,2-2,2
				c-9.5,0-17.5,15.1-17.5,33c0,17.9,8,33,17.5,33c1.1,0,2,0.9,2,2C100.8,215.9,99.9,216.7,98.9,216.7z M79.4,146.9
				c-9.5,0-17.5,15.1-17.5,33c0,17.9,8,33,17.5,33h9.7c-7-6-11.7-18.4-11.7-33c0-14.6,4.7-27,11.7-33L79.4,146.9L79.4,146.9z"/>
		</g>
		<g>
			<polygon points="98.9,214.8 98.9,214.8 98.9,214.8 			"/>
			<path d="M98.9,216.7L98.9,216.7c-1.1,0-2-0.9-2-2c0-1.1,0.9-2,2-2s2,0.9,2,2C100.8,215.9,100,216.7,98.9,216.7z"/>
		</g>
	</g>
</g>
<g class="st0">
	<g class="st1">
		<path d="M97.2,70.2c-0.5,0-0.9-0.4-1-0.9c-0.1-0.5,0.3-1,0.9-1.1c0.2,0,15.5-1.8,33.5-8.5c16.5-6.2,38.8-17.9,51-38.7
			c0.3-0.5,0.9-0.6,1.3-0.4c0.5,0.3,0.6,0.9,0.4,1.3c-12.5,21.4-35.2,33.3-52,39.6c-18.2,6.8-33.7,8.6-33.9,8.6
			C97.3,70.2,97.3,70.2,97.2,70.2z"/>
		<path d="M114.3,114.4c-0.5,0-0.9-0.3-1-0.8c-0.1-0.5,0.3-1,0.8-1.1c0.4-0.1,37.1-7.2,50.4-43.7c0.2-0.5,0.7-0.8,1.3-0.6
			c0.5,0.2,0.8,0.7,0.6,1.3c-13.7,37.6-51.5,44.8-51.8,44.9C114.4,114.4,114.3,114.4,114.3,114.4z"/>
		<path d="M131.3,33.7c-54.9,0-56.5-17-56.5-19c0-1.9,1.6-19,56.5-19c54.9,0,56.5,17.1,56.5,19C187.8,16.6,186.2,33.7,131.3,33.7z
			 M131.3-0.4c-51.1,0-52.5,15-52.6,15.1c0,0,1.4,15,52.6,15c51.1,0,52.6-14.9,52.6-15.1C183.9,14.6,182.4-0.4,131.3-0.4z"/>
		<path d="M131.3,163.1L131.3,163.1c-0.8,0-1.5-0.5-1.8-1.3L76.2,18.7c-0.3-0.9,0.1-2,1-2.4c0.9-0.4,2-0.1,2.5,0.7
			c2.4,3.9,12.3,12.8,51.6,12.8c39.3,0,49.2-9,51.6-12.8c0.5-0.8,1.6-1.2,2.5-0.7c0.9,0.4,1.3,1.5,1,2.4l-53.3,143.2
			C132.9,162.6,132.1,163.1,131.3,163.1z M82.7,24.9l48.6,130.7L180,24.9c-7.3,4.5-21.4,8.8-48.6,8.8C104,33.7,89.9,29.3,82.7,24.9z
			"/>
	</g>
	<g class="st1">
		<path d="M131.7-11.6c-0.5,0-1-0.4-1-1v-26.7c0-0.5,0.4-1,1-1c0.5,0,1,0.4,1,1v26.7C132.7-12,132.3-11.6,131.7-11.6z"/>
		<path d="M131.7-38.3c-3.8,0-6.9-3.1-6.9-6.9c0-3.8,3.1-6.9,6.9-6.9c3.8,0,6.9,3.1,6.9,6.9C138.6-41.4,135.5-38.3,131.7-38.3z
			 M131.7-50.1c-2.7,0-4.9,2.2-4.9,4.9c0,2.7,2.2,4.9,4.9,4.9s4.9-2.2,4.9-4.9C136.6-47.9,134.4-50.1,131.7-50.1z"/>
	</g>
	<g class="st1">
		<path d="M55,142.2c-5.5,0-15.9-3.3-15.9-15.9V56.5c0-12.6,10.4-15.9,15.9-15.9c12.6,0,15.9,10.4,15.9,15.9v69.8
			C70.9,138.8,60.5,142.2,55,142.2z M55,44.5c-1.2,0-12,0.4-12,12v69.8c0,11.8,11.4,12,12,12c1.2,0,12-0.4,12-12V56.5
			C67,55.3,66.6,44.5,55,44.5z"/>
	</g>
	<g class="st1">
		<path d="M207,142.2c-5.5,0-15.9-3.3-15.9-15.9V56.5c0-12.6,10.4-15.9,15.9-15.9c12.6,0,15.9,10.4,15.9,15.9v69.8
			C222.9,138.8,212.5,142.2,207,142.2z M207,44.5c-1.2,0-12,0.4-12,12v69.8c0,11.6,10.7,12,12,12c1.3,0,12-0.4,12-12V56.5
			C219,55.3,218.6,44.5,207,44.5z"/>
	</g>
	<g class="st1">
		<path d="M182.4,240.9c-12,0-21.4-16.2-21.4-36.9c0-20.7,9.4-36.9,21.4-36.9c12,0,21.4,16.2,21.4,36.9
			C203.8,224.7,194.4,240.9,182.4,240.9z M182.4,171c-9.5,0-17.5,15.1-17.5,33c0,17.9,8,33,17.5,33s17.5-15.1,17.5-33
			C199.9,186.1,191.9,171,182.4,171z"/>
	</g>
	<path class="st1" d="M188.2,204c0,5.7-2.6,10.4-5.8,10.4s-5.8-4.6-5.8-10.4c0-5.7,2.6-10.4,5.8-10.4
		C185.6,193.6,188.2,198.3,188.2,204z"/>
	<g class="st1">
		<path d="M99.2,240.9c-12,0-21.4-16.2-21.4-36.9c0-20.7,9.4-36.9,21.4-36.9s21.4,16.2,21.4,36.9
			C120.6,224.7,111.2,240.9,99.2,240.9z M99.2,171c-9.5,0-17.5,15.1-17.5,33c0,17.9,8,33,17.5,33s17.5-15.1,17.5-33
			C116.7,186.1,108.7,171,99.2,171z"/>
	</g>
	<path class="st1" d="M105,204c0,5.7-2.6,10.4-5.8,10.4c-3.2,0-5.8-4.6-5.8-10.4c0-5.7,2.6-10.4,5.8-10.4
		C102.4,193.6,105,198.3,105,204z"/>
	<g class="st1">
		<g>
			<path d="M182.4,240.9h-19.5c-12,0-21.4-16.2-21.4-36.9c0-20.7,9.4-36.9,21.4-36.9h19.5c1.1,0,2,0.9,2,2c0,1.1-0.9,2-2,2
				c-9.5,0-17.5,15.1-17.5,33c0,17.9,8,33,17.5,33c1.1,0,2,0.9,2,2C184.4,240,183.5,240.9,182.4,240.9z M162.9,171
				c-9.5,0-17.5,15.1-17.5,33c0,17.9,8,33,17.5,33h9.7c-7-6-11.7-18.4-11.7-33c0-14.6,4.7-27,11.7-33L162.9,171L162.9,171z"/>
		</g>
		<g>
			<polygon points="182.4,238.9 182.4,238.9 182.4,238.9 			"/>
			<path d="M182.4,240.9L182.4,240.9c-1.1,0-2-0.9-2-2c0-1,0.7-1.8,1.6-1.9c1.2-0.2,2.3,0.7,2.3,1.9
				C184.4,240,183.5,240.9,182.4,240.9z"/>
		</g>
	</g>
	<g class="st1">
		<g>
			<path d="M99.2,240.9H79.7c-12,0-21.4-16.2-21.4-36.9c0-20.7,9.4-36.9,21.4-36.9h19.5c1.1,0,2,0.9,2,2c0,1.1-0.9,2-2,2
				c-9.5,0-17.5,15.1-17.5,33c0,17.9,8,33,17.5,33c1.1,0,2,0.9,2,2C101.1,240,100.3,240.9,99.2,240.9z M79.7,171
				c-9.5,0-17.5,15.1-17.5,33c0,17.9,8,33,17.5,33h9.7c-7-6-11.7-18.4-11.7-33c0-14.6,4.7-27,11.7-33L79.7,171L79.7,171z"/>
		</g>
		<g>
			<polygon points="99.2,238.9 99.2,238.9 99.2,238.9 			"/>
			<path d="M99.2,240.9L99.2,240.9c-1.1,0-2-0.9-2-2c0-1,0.7-1.8,1.6-1.9c1.2-0.2,2.3,0.7,2.3,1.9C101.2,240,100.3,240.9,99.2,240.9
				z"/>
		</g>
	</g>
</g>
<g class="st0">
	<path class="st1" d="M130.3,166.3c-2.2,0-6.3-1-6.3-4.6c0-1.3-0.7-2.1-1.7-3.1c-1.5-1.6-3.4-3.6-3.4-8.3V63.3
		c0-0.4,0.5-0.8,1.1-0.8h20.7c0.6,0,1.1,0.4,1.1,0.8v87.1c0,4.7-1.9,6.7-3.4,8.3c-1,1-1.7,1.8-1.7,3.1
		C136.6,165.3,132.5,166.3,130.3,166.3z M121.1,64.1v86.2c0,4.2,1.6,5.8,3,7.3c1.1,1.1,2.1,2.2,2.1,4c0,2.9,3.6,3,4.1,3
		c0.4,0,4.1-0.1,4.1-3c0-1.8,1-2.9,2.1-4c1.4-1.5,3-3.1,3-7.3V64.1H121.1z"/>
	<g class="st1">
		<path d="M140.8,66.4h-18.3c-2.6,0-6.5-1.7-6.5-6.5v-33c-3-3.6-4.6-8.2-4.6-12.8c0-11.2,9.1-20.3,20.3-20.3
			c11.2,0,20.3,9.1,20.3,20.3c0,4.7-1.6,9.2-4.6,12.8v33C147.4,64.7,143.5,66.4,140.8,66.4z M131.7-2.4c-9,0-16.4,7.4-16.4,16.4
			c0,4,1.5,7.8,4.1,10.8c0.3,0.4,0.5,0.8,0.5,1.3v33.7c0,2.4,2,2.6,2.6,2.6h18.3c0.8,0,2.7-0.3,2.7-2.6V26.1c0-0.5,0.2-0.9,0.5-1.3
			c2.6-3,4.1-6.8,4.1-10.8C148,5,140.7-2.4,131.7-2.4z"/>
	</g>
	<g class="st1">
		<path d="M131.2-17.2c-0.5,0-1-0.4-1-1v-26.7c0-0.5,0.4-1,1-1c0.5,0,1,0.4,1,1v26.7C132.2-17.6,131.7-17.2,131.2-17.2z"/>
		<path d="M131.2-43.9c-3.8,0-6.9-3.1-6.9-6.9c0-3.8,3.1-6.9,6.9-6.9c3.8,0,6.9,3.1,6.9,6.9C138-47,135-43.9,131.2-43.9z
			 M131.2-55.7c-2.7,0-4.9,2.2-4.9,4.9c0,2.7,2.2,4.9,4.9,4.9c2.7,0,4.9-2.2,4.9-4.9C136.1-53.5,133.9-55.7,131.2-55.7z"/>
	</g>
	<g class="st1">
		<path d="M80.8,154.9c-5.5,0-15.9-3.3-15.9-15.9V69.2c0-12.6,10.4-15.9,15.9-15.9c12.6,0,15.9,10.4,15.9,15.9V139
			C96.7,151.5,86.3,154.9,80.8,154.9z M80.8,57.2c-1.2,0-12,0.4-12,12V139c0,11.8,11.4,12,12,12c1.2,0,12-0.4,12-12V69.2
			C92.8,68,92.4,57.2,80.8,57.2z"/>
	</g>
	<g class="st1">
		<path d="M182.1,154.9c-5.5,0-15.9-3.3-15.9-15.9V69.2c0-12.6,10.4-15.9,15.9-15.9c12.6,0,15.9,10.4,15.9,15.9V139
			C198,151.5,187.6,154.9,182.1,154.9z M182.1,57.2c-1.2,0-12,0.4-12,12V139c0,11.8,11.4,12,12,12c1.2,0,12-0.4,12-12V69.2
			C194.1,68,193.7,57.2,182.1,57.2z"/>
	</g>
	<g class="st1">
		<path d="M182.3,246.5c-12,0-21.4-16.2-21.4-36.9c0-20.7,9.4-36.9,21.4-36.9c12,0,21.4,16.2,21.4,36.9
			C203.8,230.3,194.4,246.5,182.3,246.5z M182.3,176.6c-9.5,0-17.5,15.1-17.5,33c0,17.9,8,33,17.5,33c9.5,0,17.5-15.1,17.5-33
			C199.9,191.7,191.8,176.6,182.3,176.6z"/>
	</g>
	<ellipse class="st1" cx="182.3" cy="209.6" rx="5.8" ry="10.4"/>
	<g class="st1">
		<path d="M99.1,246.5c-12,0-21.4-16.2-21.4-36.9c0-20.7,9.4-36.9,21.4-36.9c12,0,21.4,16.2,21.4,36.9
			C120.6,230.3,111.2,246.5,99.1,246.5z M99.1,176.6c-9.5,0-17.5,15.1-17.5,33c0,17.9,8,33,17.5,33c9.5,0,17.5-15.1,17.5-33
			C116.7,191.7,108.6,176.6,99.1,176.6z"/>
	</g>
	<ellipse class="st1" cx="99.1" cy="209.6" rx="5.8" ry="10.4"/>
	<g class="st1">
		<g>
			<path d="M182.3,246.5h-19.5c-12,0-21.4-16.2-21.4-36.9c0-20.7,9.4-36.9,21.4-36.9h19.5c1.1,0,2,0.9,2,2c0,1.1-0.9,2-2,2
				c-9.5,0-17.5,15.1-17.5,33c0,17.9,8,33,17.5,33c1.1,0,2,0.9,2,2C184.3,245.6,183.4,246.5,182.3,246.5z M162.9,176.6
				c-9.5,0-17.5,15.1-17.5,33c0,17.9,8,33,17.5,33h9.7c-7-6-11.7-18.4-11.7-33c0-14.6,4.7-27,11.7-33L162.9,176.6L162.9,176.6z"/>
		</g>
		<g>
			<polygon points="182.3,244.5 182.4,244.5 182.4,244.5 			"/>
			<path d="M182.4,246.5L182.4,246.5c-1.1,0-2-0.9-2-2c0-1.1,0.9-2,2-2s2,0.9,2,2C184.3,245.6,183.5,246.5,182.4,246.5z"/>
		</g>
	</g>
	<g class="st1">
		<g>
			<path d="M99.1,246.5H79.7c-12,0-21.4-16.2-21.4-36.9c0-20.7,9.4-36.9,21.4-36.9h19.5c1.1,0,2,0.9,2,2c0,1.1-0.9,2-2,2
				c-9.5,0-17.5,15.1-17.5,33c0,17.9,8,33,17.5,33c1.1,0,2,0.9,2,2C101.1,245.6,100.2,246.5,99.1,246.5z M79.7,176.6
				c-9.5,0-17.5,15.1-17.5,33c0,17.9,8,33,17.5,33h9.7c-7-6-11.7-18.4-11.7-33c0-14.6,4.7-27,11.7-33L79.7,176.6L79.7,176.6z"/>
		</g>
		<g>
			<polygon points="99.1,244.5 99.2,244.5 99.2,244.5 			"/>
			<path d="M99.2,246.5L99.2,246.5c-1.1,0-2-0.9-2-2c0-1.1,0.9-2,2-2s2,0.9,2,2C101.1,245.6,100.3,246.5,99.2,246.5z"/>
		</g>
	</g>
</g>
<g class="st0">
	<g class="st1">
		<g>
			<path d="M160.6,137.4H99.1c-0.5,0-1-0.4-1-1c0-0.5,0.4-1,1-1h61.5c0.5,0,1,0.4,1,1C161.6,137,161.2,137.4,160.6,137.4z"/>
			<g>
				<path d="M129.8,128c-0.5,0-1-0.4-1-1V97.4c0-0.5,0.4-1,1-1c0.5,0,1,0.4,1,1V127C130.8,127.6,130.4,128,129.8,128z"/>
				<path d="M139.7,108.3c-0.3,0-0.5-0.1-0.7-0.3l-9.2-9.2l-9.2,9.2c-0.4,0.4-1,0.4-1.4,0c-0.4-0.4-0.4-1,0-1.4l9.9-9.9
					c0.2-0.2,0.4-0.3,0.7-0.3l0,0c0.3,0,0.5,0.1,0.7,0.3l9.9,9.9c0.4,0.4,0.4,1,0,1.4C140.2,108.2,140,108.3,139.7,108.3z"/>
			</g>
		</g>
		<g>
			<path d="M156.3,87.4c-0.5,0-1.1-0.2-1.5-0.7c-0.1-0.1-8.2-9.1-23.9-9.1c-15.8,0-23.9,9-23.9,9.1c-0.7,0.8-1.9,0.9-2.8,0.2
				c-0.8-0.7-0.9-1.9-0.2-2.8c0.4-0.4,9.3-10.4,26.9-10.4c17.6,0,26.5,10,26.9,10.4c0.7,0.8,0.6,2-0.2,2.8
				C157.2,87.2,156.8,87.4,156.3,87.4z"/>
			<path d="M166.9,74.7c-0.5,0-1.1-0.2-1.5-0.7c-0.1-0.1-11.8-12.6-34.5-12.6c-22.7,0-34.4,12.5-34.5,12.6c-0.7,0.8-2,0.9-2.8,0.2
				c-0.8-0.7-0.9-2-0.2-2.8c0.5-0.6,12.9-14,37.5-14c24.6,0,36.9,13.4,37.4,14c0.7,0.8,0.6,2-0.2,2.8
				C167.8,74.5,167.3,74.7,166.9,74.7z"/>
			<path d="M177.5,62c-0.5,0-1.1-0.2-1.4-0.6c-0.1-0.2-15.4-16.2-45.1-16.2c-29.7,0-45,16-45.1,16.2c-0.7,0.8-2,0.9-2.8,0.1
				c-0.8-0.7-0.9-2-0.1-2.8c0.7-0.7,16.5-17.5,48-17.5c31.5,0,47.4,16.7,48,17.5c0.7,0.8,0.7,2-0.1,2.8
				C178.4,61.8,177.9,62,177.5,62z"/>
			<path d="M188,49.3c-0.5,0-1.1-0.2-1.4-0.6c-0.2-0.2-19-19.7-55.7-19.7S75.4,48.4,75.2,48.6c-0.7,0.8-2,0.8-2.8,0.1
				c-0.8-0.7-0.8-2-0.1-2.8c0.8-0.9,20.1-21,58.6-21c38.5,0,57.8,20.1,58.6,21c0.7,0.8,0.7,2-0.1,2.8C189,49.1,188.5,49.3,188,49.3z
				"/>
			<path d="M198.6,36.6c-0.5,0-1-0.2-1.4-0.6c-0.2-0.2-22.6-23.3-66.3-23.3c-43.7,0-66.1,23-66.3,23.3c-0.7,0.8-2,0.8-2.8,0.1
				c-0.8-0.7-0.8-2-0.1-2.8c0.9-1,23.7-24.5,69.1-24.5c45.5,0,68.2,23.5,69.1,24.5c0.7,0.8,0.7,2-0.1,2.8
				C199.6,36.4,199.1,36.6,198.6,36.6z"/>
		</g>
	</g>
	<g class="st1">
		<path d="M41.9,143.9c-5.5,0-15.9-3.3-15.9-15.9V58.2c0-12.6,10.4-15.9,15.9-15.9c12.6,0,15.9,10.4,15.9,15.9v69.8
			C57.8,140.5,47.4,143.9,41.9,143.9z M41.9,46.2c-1.2,0-12,0.4-12,12v69.8c0,11.8,11.4,12,12,12c1.2,0,12-0.4,12-12V58.2
			C53.8,57,53.4,46.2,41.9,46.2z"/>
	</g>
	<g class="st1">
		<path d="M220.1,143.4c-5.5,0-15.9-3.3-15.9-15.9V57.7c0-12.6,10.4-15.9,15.9-15.9c12.6,0,15.9,10.4,15.9,15.9v69.8
			C236,140,225.6,143.4,220.1,143.4z M220.1,45.7c-1.2,0-12,0.4-12,12v69.8c0,11.8,11.4,12,12,12c1.2,0,12-0.4,12-12V57.7
			C232.1,56.5,231.7,45.7,220.1,45.7z"/>
	</g>
	<path class="st1" d="M130.8,0.8c-0.5,0-1-0.4-1-1v-26.7c0-0.5,0.4-1,1-1c0.5,0,1,0.4,1,1v26.7C131.7,0.4,131.3,0.8,130.8,0.8z"/>
	<path class="st1" d="M130.7-25.9c-3.8,0-6.9-3.1-6.9-6.9c0-3.8,3.1-6.9,6.9-6.9c3.8,0,6.9,3.1,6.9,6.9
		C137.6-29,134.5-25.9,130.7-25.9z M130.7-37.7c-2.7,0-4.9,2.2-4.9,4.9s2.2,4.9,4.9,4.9c2.7,0,4.9-2.2,4.9-4.9
		C135.7-35.5,133.5-37.7,130.7-37.7z"/>
	<g class="st1">
		<path d="M180.5,228.5c-12,0-21.4-16.2-21.4-36.9c0-20.7,9.4-36.9,21.4-36.9c12,0,21.4,16.2,21.4,36.9
			C201.9,212.3,192.5,228.5,180.5,228.5z M180.5,158.7c-9.5,0-17.5,15.1-17.5,33c0,17.9,8,33,17.5,33s17.5-15.1,17.5-33
			C198,173.8,190,158.7,180.5,158.7z"/>
	</g>
	<ellipse class="st1" cx="180.5" cy="191.6" rx="5.8" ry="10.4"/>
	<g class="st1">
		<path d="M97.3,228.5c-12,0-21.4-16.2-21.4-36.9c0-20.7,9.4-36.9,21.4-36.9c12,0,21.4,16.2,21.4,36.9
			C118.7,212.3,109.3,228.5,97.3,228.5z M97.3,158.7c-9.5,0-17.5,15.1-17.5,33c0,17.9,8,33,17.5,33c9.5,0,17.5-15.1,17.5-33
			C114.8,173.8,106.8,158.7,97.3,158.7z"/>
	</g>
	<ellipse class="st1" cx="97.3" cy="191.6" rx="5.8" ry="10.4"/>
	<g class="st1">
		<g>
			<path d="M180.5,228.5H161c-12,0-21.4-16.2-21.4-36.9c0-20.7,9.4-36.9,21.4-36.9h19.5c1.1,0,2,0.9,2,2s-0.9,2-2,2
				c-9.5,0-17.5,15.1-17.5,33c0,17.9,8,33,17.5,33c1.1,0,2,0.9,2,2C182.4,227.6,181.6,228.5,180.5,228.5z M161,158.7
				c-9.5,0-17.5,15.1-17.5,33c0,17.9,8,33,17.5,33h9.7c-7-6-11.7-18.4-11.7-33c0-14.6,4.7-27,11.7-33H161z"/>
		</g>
		<g>
			<polygon points="180.5,226.6 180.5,226.6 180.5,226.6 			"/>
			<path d="M180.5,228.5L180.5,228.5c-1.1,0-2-0.9-2-2c0-1,0.7-1.8,1.6-1.9c1.2-0.2,2.3,0.7,2.3,1.9
				C182.5,227.6,181.6,228.5,180.5,228.5z"/>
		</g>
	</g>
	<g class="st1">
		<g>
			<path d="M97.3,228.5H77.8c-12,0-21.4-16.2-21.4-36.9c0-20.7,9.4-36.9,21.4-36.9h19.5c1.1,0,2,0.9,2,2s-0.9,2-2,2
				c-9.5,0-17.5,15.1-17.5,33c0,17.9,8,33,17.5,33c1.1,0,2,0.9,2,2C99.2,227.6,98.4,228.5,97.3,228.5z M77.8,158.7
				c-9.5,0-17.5,15.1-17.5,33c0,17.9,8,33,17.5,33h9.7c-7-6-11.7-18.4-11.7-33c0-14.6,4.7-27,11.7-33H77.8z"/>
		</g>
		<g>
			<polygon points="97.3,226.6 97.3,226.6 97.3,226.6 			"/>
			<path d="M97.3,228.5L97.3,228.5c-1.1,0-2-0.9-2-2c0-1,0.7-1.8,1.6-1.9c1.2-0.2,2.3,0.7,2.3,1.9C99.3,227.6,98.4,228.5,97.3,228.5
				z"/>
		</g>
	</g>
</g>
<g class="st0">
	<path class="st1" d="M160.6,137.4H99.1c-0.5,0-1-0.4-1-1c0-0.5,0.4-1,1-1h61.5c0.5,0,1,0.4,1,1C161.6,137,161.2,137.4,160.6,137.4z
		"/>
	<g class="st1">
		<path d="M129.8,96.5c0.5,0,1,0.4,1,1V127c0,0.5-0.4,1-1,1c-0.5,0-1-0.4-1-1V97.4C128.9,96.9,129.3,96.5,129.8,96.5z"/>
		<path d="M120,116.2c0.3,0,0.5,0.1,0.7,0.3l9.2,9.2l9.2-9.2c0.4-0.4,1-0.4,1.4,0c0.4,0.4,0.4,1,0,1.4l-9.9,9.9
			c-0.2,0.2-0.4,0.3-0.7,0.3l0,0c-0.3,0-0.5-0.1-0.7-0.3l-9.9-9.9c-0.4-0.4-0.4-1,0-1.4C119.5,116.3,119.7,116.2,120,116.2z"/>
	</g>
	<g class="st1">
		<path d="M156.3,87.4c-0.5,0-1.1-0.2-1.5-0.7c-0.1-0.1-8.2-9.1-23.9-9.1c-15.8,0-23.9,9-23.9,9.1c-0.7,0.8-1.9,0.9-2.8,0.2
			c-0.8-0.7-0.9-1.9-0.2-2.8c0.4-0.4,9.3-10.4,26.9-10.4c17.6,0,26.5,10,26.9,10.4c0.7,0.8,0.6,2-0.2,2.8
			C157.2,87.2,156.8,87.4,156.3,87.4z"/>
		<path d="M166.9,74.7c-0.5,0-1.1-0.2-1.5-0.7c-0.1-0.1-11.8-12.6-34.5-12.6c-22.7,0-34.4,12.5-34.5,12.6c-0.7,0.8-2,0.9-2.8,0.2
			c-0.8-0.7-0.9-2-0.2-2.8c0.5-0.6,12.9-14,37.5-14c24.6,0,36.9,13.4,37.4,14c0.7,0.8,0.6,2-0.2,2.8
			C167.8,74.5,167.3,74.7,166.9,74.7z"/>
		<path d="M177.5,62c-0.5,0-1.1-0.2-1.4-0.6c-0.1-0.2-15.4-16.2-45.1-16.2c-29.7,0-45,16-45.1,16.2c-0.7,0.8-2,0.9-2.8,0.1
			c-0.8-0.7-0.9-2-0.1-2.8c0.7-0.7,16.5-17.5,48-17.5c31.5,0,47.4,16.7,48,17.5c0.7,0.8,0.7,2-0.1,2.8C178.4,61.8,177.9,62,177.5,62
			z"/>
		<path d="M188,49.3c-0.5,0-1.1-0.2-1.4-0.6c-0.2-0.2-19-19.7-55.7-19.7S75.4,48.4,75.2,48.6c-0.7,0.8-2,0.8-2.8,0.1
			c-0.8-0.7-0.8-2-0.1-2.8c0.8-0.9,20.1-21,58.6-21c38.5,0,57.8,20.1,58.6,21c0.7,0.8,0.7,2-0.1,2.8C189,49.1,188.5,49.3,188,49.3z"
			/>
		<path d="M198.6,36.6c-0.5,0-1-0.2-1.4-0.6c-0.2-0.2-22.6-23.3-66.3-23.3c-43.7,0-66.1,23-66.3,23.3c-0.7,0.8-2,0.8-2.8,0.1
			c-0.8-0.7-0.8-2-0.1-2.8c0.9-1,23.7-24.5,69.1-24.5c45.5,0,68.2,23.5,69.1,24.5c0.7,0.8,0.7,2-0.1,2.8
			C199.6,36.4,199.1,36.6,198.6,36.6z"/>
	</g>
	<g class="st1">
		<path d="M41.9,143.9c-5.5,0-15.9-3.3-15.9-15.9V58.2c0-12.6,10.4-15.9,15.9-15.9c12.6,0,15.9,10.4,15.9,15.9v69.8
			C57.8,140.5,47.4,143.9,41.9,143.9z M41.9,46.2c-1.2,0-12,0.4-12,12v69.8c0,11.8,11.4,12,12,12c1.2,0,12-0.4,12-12V58.2
			C53.8,57,53.4,46.2,41.9,46.2z"/>
	</g>
	<g class="st1">
		<path d="M220.1,143.4c-5.5,0-15.9-3.3-15.9-15.9V57.7c0-12.6,10.4-15.9,15.9-15.9c12.6,0,15.9,10.4,15.9,15.9v69.8
			C236,140,225.6,143.4,220.1,143.4z M220.1,45.7c-1.2,0-12,0.4-12,12v69.8c0,11.8,11.4,12,12,12c1.2,0,12-0.4,12-12V57.7
			C232.1,56.5,231.7,45.7,220.1,45.7z"/>
	</g>
	<path class="st1" d="M130.8,0.8c-0.5,0-1-0.4-1-1v-26.7c0-0.5,0.4-1,1-1c0.5,0,1,0.4,1,1v26.7C131.7,0.4,131.3,0.8,130.8,0.8z"/>
	<path class="st1" d="M130.7-25.9c-3.8,0-6.9-3.1-6.9-6.9c0-3.8,3.1-6.9,6.9-6.9c3.8,0,6.9,3.1,6.9,6.9
		C137.6-29,134.5-25.9,130.7-25.9z M130.7-37.7c-2.7,0-4.9,2.2-4.9,4.9s2.2,4.9,4.9,4.9c2.7,0,4.9-2.2,4.9-4.9
		C135.7-35.5,133.5-37.7,130.7-37.7z"/>
	<g class="st1">
		<path d="M180.5,228.5c-12,0-21.4-16.2-21.4-36.9c0-20.7,9.4-36.9,21.4-36.9c12,0,21.4,16.2,21.4,36.9
			C201.9,212.3,192.5,228.5,180.5,228.5z M180.5,158.7c-9.5,0-17.5,15.1-17.5,33c0,17.9,8,33,17.5,33s17.5-15.1,17.5-33
			C198,173.8,190,158.7,180.5,158.7z"/>
	</g>
	<ellipse class="st1" cx="180.5" cy="191.6" rx="5.8" ry="10.4"/>
	<g class="st1">
		<path d="M97.3,228.5c-12,0-21.4-16.2-21.4-36.9c0-20.7,9.4-36.9,21.4-36.9c12,0,21.4,16.2,21.4,36.9
			C118.7,212.3,109.3,228.5,97.3,228.5z M97.3,158.7c-9.5,0-17.5,15.1-17.5,33c0,17.9,8,33,17.5,33c9.5,0,17.5-15.1,17.5-33
			C114.8,173.8,106.8,158.7,97.3,158.7z"/>
	</g>
	<ellipse class="st1" cx="97.3" cy="191.6" rx="5.8" ry="10.4"/>
	<g class="st1">
		<g>
			<path d="M180.5,228.5H161c-12,0-21.4-16.2-21.4-36.9c0-20.7,9.4-36.9,21.4-36.9h19.5c1.1,0,2,0.9,2,2s-0.9,2-2,2
				c-9.5,0-17.5,15.1-17.5,33c0,17.9,8,33,17.5,33c1.1,0,2,0.9,2,2C182.4,227.6,181.6,228.5,180.5,228.5z M161,158.7
				c-9.5,0-17.5,15.1-17.5,33c0,17.9,8,33,17.5,33h9.7c-7-6-11.7-18.4-11.7-33c0-14.6,4.7-27,11.7-33H161z"/>
		</g>
		<g>
			<polygon points="180.5,226.6 180.5,226.6 180.5,226.6 			"/>
			<path d="M180.5,228.5L180.5,228.5c-1.1,0-2-0.9-2-2c0-1,0.7-1.8,1.6-1.9c1.2-0.2,2.3,0.7,2.3,1.9
				C182.5,227.6,181.6,228.5,180.5,228.5z"/>
		</g>
	</g>
	<g class="st1">
		<g>
			<path d="M97.3,228.5H77.8c-12,0-21.4-16.2-21.4-36.9c0-20.7,9.4-36.9,21.4-36.9h19.5c1.1,0,2,0.9,2,2s-0.9,2-2,2
				c-9.5,0-17.5,15.1-17.5,33c0,17.9,8,33,17.5,33c1.1,0,2,0.9,2,2C99.2,227.6,98.4,228.5,97.3,228.5z M77.8,158.7
				c-9.5,0-17.5,15.1-17.5,33c0,17.9,8,33,17.5,33h9.7c-7-6-11.7-18.4-11.7-33c0-14.6,4.7-27,11.7-33H77.8z"/>
		</g>
		<g>
			<polygon points="97.3,226.6 97.3,226.6 97.3,226.6 			"/>
			<path d="M97.3,228.5L97.3,228.5c-1.1,0-2-0.9-2-2c0-1,0.7-1.8,1.6-1.9c1.2-0.2,2.3,0.7,2.3,1.9C99.3,227.6,98.4,228.5,97.3,228.5
				z"/>
		</g>
	</g>
</g>
<g class="st0">
	<g class="st1">
		<path d="M131,162.4c-19.8,0-35.4-7.2-35.4-16.3V7.7c0-1.1,0.9-2,2-2c1.1,0,2,0.9,2,2c0,5.9,12.9,12.4,31.5,12.4
			c18.5,0,31.5-6.5,31.5-12.4c0-1.1,0.9-2,2-2s2,0.9,2,2v138.4C166.4,155.3,150.9,162.4,131,162.4z M99.6,15.3v130.9
			c0,5.9,12.9,12.4,31.5,12.4c18.5,0,31.5-6.5,31.5-12.4V15.3c-5.8,5.2-17.6,8.7-31.5,8.7C117.2,24,105.4,20.5,99.6,15.3z"/>
	</g>
	<g class="st1">
		<path d="M131.5,67.5c-16.8,0-34.2-4.5-34.2-12.1c0-7.5,17.4-12.1,34.2-12.1c16.8,0,34.2,4.5,34.2,12.1
			C165.7,63,148.3,67.5,131.5,67.5z M131.5,45.4c-19,0-32.2,5.3-32.2,10.1c0,4.9,13,10.1,32.2,10.1c19.3,0,32.2-5.2,32.2-10.1
			C163.7,50.7,150.5,45.4,131.5,45.4z"/>
	</g>
	<g class="st1">
		<path d="M71.2,151c-5.5,0-15.9-3.3-15.9-15.9V65.3c0-12.6,10.4-15.9,15.9-15.9c12.6,0,15.9,10.4,15.9,15.9v69.8
			C87.1,147.7,76.7,151,71.2,151z M71.2,53.3c-1.2,0-12,0.4-12,12v69.8c0,11.8,11.4,12,12,12c1.2,0,12-0.4,12-12V65.3
			C83.2,64.1,82.7,53.3,71.2,53.3z"/>
	</g>
	<g class="st1">
		<path d="M190.8,151c-5.5,0-15.9-3.3-15.9-15.9V65.4c0-12.6,10.4-15.9,15.9-15.9c12.6,0,15.9,10.4,15.9,15.9v69.8
			C206.7,147.7,196.3,151,190.8,151z M190.8,53.4c-1.2,0-12,0.4-12,12v69.8c0,11.8,11.4,12,12,12c1.2,0,12-0.4,12-12V65.4
			C202.8,64.1,202.4,53.4,190.8,53.4z"/>
	</g>
	<path class="st1" d="M131.2-19.7c-0.5,0-1-0.4-1-1v-26.7c0-0.5,0.4-1,1-1c0.5,0,1,0.4,1,1v26.7C132.1-20.2,131.7-19.7,131.2-19.7z"
		/>
	<path class="st1" d="M131.2-46.4c-3.8,0-6.9-3.1-6.9-6.9c0-3.8,3.1-6.9,6.9-6.9c3.8,0,6.9,3.1,6.9,6.9
		C138-49.5,134.9-46.4,131.2-46.4z M131.2-58.2c-2.7,0-4.9,2.2-4.9,4.9c0,2.7,2.2,4.9,4.9,4.9c2.7,0,4.9-2.2,4.9-4.9
		C136.1-56,133.9-58.2,131.2-58.2z"/>
	<g class="st1">
		<path d="M182.3,249c-12,0-21.4-16.2-21.4-36.9c0-20.7,9.4-36.9,21.4-36.9c12,0,21.4,16.2,21.4,36.9
			C203.7,232.8,194.3,249,182.3,249z M182.3,179.2c-9.5,0-17.5,15.1-17.5,33c0,17.9,8,33,17.5,33c9.5,0,17.5-15.1,17.5-33
			C199.8,194.3,191.8,179.2,182.3,179.2z"/>
	</g>
	<path class="st1" d="M188,212.1c0,5.7-2.6,10.4-5.8,10.4c-3.2,0-5.8-4.6-5.8-10.4c0-5.7,2.6-10.4,5.8-10.4
		C185.5,201.8,188,206.4,188,212.1z"/>
	<g class="st1">
		<path d="M99.1,249c-12,0-21.4-16.2-21.4-36.9c0-20.7,9.4-36.9,21.4-36.9s21.4,16.2,21.4,36.9C120.5,232.8,111.1,249,99.1,249z
			 M99.1,179.2c-9.5,0-17.5,15.1-17.5,33c0,17.9,8,33,17.5,33s17.5-15.1,17.5-33C116.6,194.3,108.6,179.2,99.1,179.2z"/>
	</g>
	<ellipse class="st1" cx="99.1" cy="212.1" rx="5.8" ry="10.4"/>
	<g class="st1">
		<g>
			<path d="M182.3,249h-19.5c-12,0-21.4-16.2-21.4-36.9c0-20.7,9.4-36.9,21.4-36.9h19.5c1.1,0,2,0.9,2,2c0,1.1-0.9,2-2,2
				c-9.5,0-17.5,15.1-17.5,33c0,17.9,8,33,17.5,33c1.1,0,2,0.9,2,2C184.2,248.2,183.3,249,182.3,249z M162.8,179.2
				c-9.5,0-17.5,15.1-17.5,33c0,17.9,8,33,17.5,33h9.7c-7-6-11.7-18.4-11.7-33c0-14.6,4.7-27,11.7-33L162.8,179.2L162.8,179.2z"/>
		</g>
		<g>
			<polygon points="182.3,247.1 182.3,247.1 182.3,247.1 			"/>
			<path d="M182.3,249L182.3,249c-1.1,0-2-0.9-2-2c0-1,0.8-1.9,1.8-1.9c0,0,0.1,0,0.1,0c1.1,0,2,0.9,2,2
				C184.2,248.2,183.4,249,182.3,249z"/>
		</g>
	</g>
	<g class="st1">
		<g>
			<path d="M99.1,249H79.6c-12,0-21.4-16.2-21.4-36.9c0-20.7,9.4-36.9,21.4-36.9h19.5c1.1,0,2,0.9,2,2c0,1.1-0.9,2-2,2
				c-9.5,0-17.5,15.1-17.5,33c0,17.9,8,33,17.5,33c1.1,0,2,0.9,2,2C101,248.2,100.1,249,99.1,249z M79.6,179.2
				c-9.5,0-17.5,15.1-17.5,33c0,17.9,8,33,17.5,33h9.7c-7-6-11.7-18.4-11.7-33c0-14.6,4.7-27,11.7-33L79.6,179.2L79.6,179.2z"/>
		</g>
		<g>
			<polygon points="99.1,247.1 99.1,247.1 99.1,247.1 			"/>
			<path d="M99.1,249L99.1,249c-1.1,0-2-0.9-2-2c0-1.1,0.9-2,2-2s2,0.9,2,2C101,248.2,100.2,249,99.1,249z"/>
		</g>
	</g>
	<g class="st1">
		<path d="M131,24c-19.8,0-35.4-7.2-35.4-16.3c0-6.6,8-12.3,20.9-14.9c1.1-0.2,2.1,0.5,2.3,1.5s-0.5,2.1-1.5,2.3
			c-10.6,2.1-17.7,6.6-17.7,11c0,5.9,12.9,12.4,31.5,12.4c18.5,0,31.5-6.5,31.5-12.4c0-4.5-7.1-8.9-17.7-11
			c-1.1-0.2-1.7-1.2-1.5-2.3c0.2-1.1,1.3-1.7,2.3-1.5c12.9,2.6,20.9,8.3,20.9,14.9C166.4,16.9,150.9,24,131,24z"/>
	</g>
	<g class="st1">
		<path d="M131.2,14.3c-14.8,0-15.4-5.8-15.4-6.5V-4.2c0-0.5,0.4-1,1-1s1,0.4,1,1C117.7-3.9,118,2,131,2c13,0,13.3-5.9,13.3-6.2
			c0-0.5,0.4-1,1-1c0.5,0,1,0.4,1,1l0,0l0,0l0,0l0,0l0,0l0,0l0,0l0,0v0c0,0,0,0,0,0V7.7c0,0.1,0,1.5-1.4,2.9
			C142.6,13.1,138,14.3,131.2,14.3z M117.7,7.8c0,0,0.5,4.6,13.5,4.6c12.9,0,13.2-4.5,13.2-4.6V0c-1.9,2-5.8,4-13.3,4
			c-7.6,0-11.4-2-13.3-4V7.8L117.7,7.8z"/>
	</g>
	<g class="st1">
		<path d="M131,4c-8.6,0-15.3-3.6-15.3-8.1c0-4.6,6.7-8.1,15.3-8.1c8.6,0,15.3,3.6,15.3,8.1C146.3,0.4,139.6,4,131,4z M131-10.4
			c-8,0-13.3,3.2-13.3,6.2c0,3.3,6.1,6.2,13.3,6.2c7.2,0,13.3-2.8,13.3-6.2C144.4-7.2,139-10.4,131-10.4z"/>
	</g>
</g>
<g class="st0">
	<g class="st1">
		<path d="M114.5,47.8c-0.4,0.4-0.9,0.6-1.4,0.6h-5.4L87.2,58.6l20.5,10.3h47.9l20.5-10.3l-20.5-10.3h-5.4c-0.5,0-0.9-0.2-1.2-0.4
			c-0.5-0.4,2.6-3.5,2.6-3.5h4.5c0.3,0,0.6,0.1,0.9,0.2l24.4,12.2c0.7,0.3,1.1,1,1.1,1.7c0,0.7-0.4,1.4-1.1,1.7L157,72.6
			c-0.3,0.1-0.6,0.2-0.9,0.2h-48.8c-0.3,0-0.6-0.1-0.9-0.2L82,60.4c-0.7-0.3-1.1-1-1.1-1.7c0-0.7,0.4-1.4,1.1-1.7l24.4-12.2
			c0.3-0.1,0.6-0.2,0.9-0.2h4.6"/>
		<path d="M111.8,44.5c0,0,3,3,2.7,3.3"/>
	</g>
	<g class="st1">
		<path d="M180.5,146.1H82.8c-0.5,0-0.9-0.2-1.3-0.5l-27.7-24.4c-0.6-0.6-0.8-1.5-0.5-2.3l27.7-61.1c0.2-0.5,0.6-0.9,1.1-1
			c0.5-0.2,1.1-0.1,1.5,0.1l24,12h47.9l24-12c0.5-0.2,1-0.3,1.5-0.1c0.5,0.2,0.9,0.6,1.1,1l27.7,61.1c0.4,0.8,0.2,1.7-0.5,2.3
			l-27.7,24.4C181.5,145.9,181,146.1,180.5,146.1z M83.5,142.2h96.3l26-23l-26.2-57.9L157,72.6c-0.3,0.1-0.6,0.2-0.9,0.2h-48.8
			c-0.3,0-0.6-0.1-0.9-0.2L83.8,61.3l-26.2,57.9L83.5,142.2z"/>
	</g>
	<g class="st1">
		<line class="st6" x1="82.8" y1="144.2" x2="107.3" y2="70.9"/>
		<path d="M82.8,146.1c-0.2,0-0.4,0-0.6-0.1c-1-0.3-1.6-1.5-1.2-2.5l24.5-73.3c0.3-1,1.4-1.6,2.5-1.2c1,0.3,1.6,1.5,1.2,2.5
			l-24.5,73.3C84.4,145.6,83.6,146.1,82.8,146.1z"/>
	</g>
	<g class="st1">
		<line class="st6" x1="156.1" y1="70.9" x2="180.5" y2="144.2"/>
		<path d="M180.5,146.1c-0.8,0-1.6-0.5-1.9-1.3l-24.4-73.3c-0.3-1,0.2-2.1,1.2-2.5c1-0.3,2.1,0.2,2.5,1.2l24.4,73.3
			c0.3,1-0.2,2.1-1.2,2.5C181,146.1,180.8,146.1,180.5,146.1z"/>
	</g>
	<g class="st1">
		<path d="M114.4,123.4h-5.6l8.8-23.5h-12.8v-4.8h18.4v4.8L114.4,123.4z"/>
		<path d="M125.9,111.9V95.1H143v4.8h-11.8v5.9c0.8-0.5,2.5-0.9,4-0.9c5.7,0,8.9,3.8,8.9,9.6v1.3c0,5-3.8,8.1-9.1,8.1
			c-6.2,0-9.2-3.3-9.6-8.5v0h5.3v0c0.2,2.1,1.7,3.6,4,3.6c2.7,0,4-1.5,4-3.7v-1.5c0-2.5-1.4-4.1-4-4.1c-1.8,0-3,0.8-3.6,2.2
			L125.9,111.9L125.9,111.9z"/>
		<path d="M148.9,117.1l3.1-3.4h3l-3.5,3.8l4,5.9h-2.9l-2.8-4.1l-0.9,1v3.1h-2.5v-13.2h2.5V117.1z"/>
		<path d="M158.4,123.5c0.2,0.9,0.8,1.4,1.8,1.4c1.2,0,1.9-0.8,1.9-1.9v-1.1c-0.4,0.7-1.4,1.1-2.3,1.1c-2,0-3.9-1.4-3.9-4.2v-1
			c0-2.9,1.9-4.2,3.9-4.2c0.9,0,1.9,0.5,2.3,1.1v-0.8h2.5v8.9c0,2.7-1.6,4.5-4.4,4.5c-2.5,0-4-1.4-4.3-3.6L158.4,123.5L158.4,123.5z
			 M158.4,118.6c0,1.3,0.9,1.9,1.9,1.9c0.9,0,1.9-0.6,1.9-1.9v-0.8c0-1.3-0.9-1.9-1.9-1.9c-0.9,0-1.9,0.6-1.9,1.9V118.6z"/>
	</g>
	<g class="st1">
		<path d="M136.2,58.6h-9c-0.5,0-1-0.4-1-1V46.7c0-0.5,0.4-1,1-1h9c0.5,0,1,0.4,1,1v10.9C137.2,58.2,136.7,58.6,136.2,58.6z
			 M128.2,56.7h7.1v-9h-7.1V56.7z"/>
	</g>
	<g class="st1">
		<path d="M131.7-4.6c-0.5,0-1-0.4-1-1v-26.7c0-0.5,0.4-1,1-1s1,0.4,1,1v26.7C132.7-5,132.2-4.6,131.7-4.6z"/>
		<path d="M131.7-31.3c-3.8,0-6.9-3.1-6.9-6.9c0-3.8,3.1-6.9,6.9-6.9c3.8,0,6.9,3.1,6.9,6.9C138.6-34.4,135.5-31.3,131.7-31.3z
			 M131.7-43.1c-2.7,0-4.9,2.2-4.9,4.9c0,2.7,2.2,4.9,4.9,4.9c2.7,0,4.9-2.2,4.9-4.9C136.6-40.9,134.4-43.1,131.7-43.1z"/>
	</g>
	<g class="st1">
		<path d="M23.6,147.4c-5.5,0-15.9-3.3-15.9-15.9V61.7c0-12.6,10.4-15.9,15.9-15.9c12.6,0,15.9,10.4,15.9,15.9v69.8
			C39.5,144.1,29.1,147.4,23.6,147.4z M23.6,49.8c-1.2,0-12,0.4-12,12v69.8c0,11.8,11.4,12,12,12c1.2,0,12-0.4,12-12V61.7
			C35.6,60.5,35.2,49.8,23.6,49.8z"/>
	</g>
	<g class="st1">
		<path d="M238.4,147c-5.5,0-15.9-3.3-15.9-15.9V61.3c0-12.6,10.4-15.9,15.9-15.9c12.6,0,15.9,10.4,15.9,15.9v69.8
			C254.3,143.7,243.9,147,238.4,147z M238.4,49.3c-1.2,0-12,0.4-12,12v69.8c0,11.8,11.4,12,12,12c1.2,0,12-0.4,12-12V61.3
			C250.4,60.1,250,49.3,238.4,49.3z"/>
	</g>
	<g class="st1">
		<path d="M182.2,233.9c-12,0-21.4-16.2-21.4-36.9c0-20.7,9.4-36.9,21.4-36.9c12,0,21.4,16.2,21.4,36.9
			C203.7,217.7,194.3,233.9,182.2,233.9z M182.2,164c-9.5,0-17.5,15.1-17.5,33c0,17.9,8,33,17.5,33c9.5,0,17.5-15.1,17.5-33
			C199.8,179.1,191.7,164,182.2,164z"/>
	</g>
	<ellipse class="st1" cx="182.2" cy="197" rx="5.8" ry="10.4"/>
	<g class="st1">
		<path d="M99,233.9c-12,0-21.4-16.2-21.4-36.9c0-20.7,9.4-36.9,21.4-36.9c12,0,21.4,16.2,21.4,36.9C120.5,217.7,111,233.9,99,233.9
			z M99,164c-9.5,0-17.5,15.1-17.5,33c0,17.9,8,33,17.5,33c9.5,0,17.5-15.1,17.5-33C116.6,179.1,108.5,164,99,164z"/>
	</g>
	<ellipse class="st1" cx="99" cy="197" rx="5.8" ry="10.4"/>
	<g class="st1">
		<g>
			<path d="M182.2,233.9h-19.5c-12,0-21.4-16.2-21.4-36.9c0-20.7,9.4-36.9,21.4-36.9h19.5c1.1,0,2,0.9,2,2c0,1.1-0.9,2-2,2
				c-9.5,0-17.5,15.1-17.5,33c0,17.9,8,33,17.5,33c1.1,0,2,0.9,2,2C184.2,233,183.3,233.9,182.2,233.9z M162.8,164
				c-9.5,0-17.5,15.1-17.5,33c0,17.9,8,33,17.5,33h9.7c-7-6-11.7-18.4-11.7-33c0-14.6,4.7-27,11.7-33L162.8,164L162.8,164z"/>
		</g>
		<g>
			<polygon points="182.2,232 182.3,232 182.3,231.9 			"/>
			<path d="M182.3,233.9L182.3,233.9c-1.1,0-2-0.9-2-2c0-1,0.7-1.8,1.6-1.9c1.2-0.3,2.3,0.7,2.3,1.9
				C184.2,233,183.4,233.9,182.3,233.9z"/>
		</g>
	</g>
	<g class="st1">
		<g>
			<path d="M99,233.9H79.6c-12,0-21.4-16.2-21.4-36.9c0-20.7,9.4-36.9,21.4-36.9H99c1.1,0,2,0.9,2,2c0,1.1-0.9,2-2,2
				c-9.5,0-17.5,15.1-17.5,33c0,17.9,8,33,17.5,33c1.1,0,2,0.9,2,2C101,233,100.1,233.9,99,233.9z M79.6,164
				c-9.5,0-17.5,15.1-17.5,33c0,17.9,8,33,17.5,33h9.7c-7-6-11.7-18.4-11.7-33c0-14.6,4.7-27,11.7-33L79.6,164L79.6,164z"/>
		</g>
		<g>
			<polygon points="99,232 99.1,232 99.1,231.9 			"/>
			<path d="M99.1,233.9L99.1,233.9c-1.1,0-2-0.9-2-2c0-1,0.7-1.8,1.7-1.9c1.3-0.2,2.3,0.7,2.3,1.9C101,233,100.2,233.9,99.1,233.9z"
				/>
		</g>
	</g>
	<g class="st1">
		<path d="M136.2,55.6c-0.2,0-0.4-0.1-0.6-0.2c-0.2-0.2-0.4-0.5-0.4-0.8V48c0-0.4,0.3-0.8,0.7-0.9c7.5-1.9,12.8-8.7,12.8-16.4
			c0-9.4-7.6-17-17-17s-17,7.6-17,17c0,7.7,5.2,14.5,12.8,16.4c0.4,0.1,0.7,0.5,0.7,0.9v6.6c0,0.3-0.1,0.6-0.4,0.8
			c-0.2,0.2-0.5,0.3-0.8,0.2c-12-2.2-20.7-12.7-20.7-24.9c0-14,11.4-25.4,25.4-25.4s25.4,11.4,25.4,25.4c0,12.2-8.7,22.7-20.7,24.9
			C136.3,55.6,136.2,55.6,136.2,55.6z M137.2,48.7v4.7c10.5-2.5,18-11.9,18-22.8c0-12.9-10.5-23.5-23.5-23.5s-23.5,10.5-23.5,23.5
			c0,10.9,7.5,20.3,18,22.8v-4.7c-8-2.4-13.5-9.8-13.5-18.1c0-10.5,8.5-19,19-19s19,8.5,19,19C150.7,39,145.2,46.3,137.2,48.7z"/>
	</g>
</g>
<g class="st0">
	<g class="st1">
		<path d="M147,71.8v23.8h3.9v2.6H147v10.5h-2.8V98.2h-17.3v-2.6l17.3-23.8H147z M144.2,95.6V76.4l-14.1,19.2H144.2z"/>
		<path d="M159.5,88.7c1.7-2,4.5-3,7.2-3c4.9,0,10.4,2.7,10.4,10.7v2.3c0,7.9-5.5,10.7-10.4,10.7c-4.9,0-10.4-2.7-10.4-10.7v-0.4
			h2.8v0.4c0,4.9,3.2,8,7.6,8c4.4,0,7.6-3.1,7.6-8v-2.3c0-4.9-3.2-8-7.6-8c-2.9,0-5.4,1.4-6.7,3.7h-3.3V71.8h19v2.7h-16.2
			L159.5,88.7L159.5,88.7z"/>
		<path d="M190.9,71.6c4.5,0,8.2,3.7,8.2,8.2c0,4.5-3.7,8.2-8.2,8.2s-8.2-3.7-8.2-8.2C182.7,75.2,186.4,71.6,190.9,71.6z
			 M190.9,85.7c3.3,0,5.9-2.6,5.9-5.9s-2.6-5.9-5.9-5.9c-3.3,0-5.9,2.6-5.9,5.9S187.6,85.7,190.9,85.7z"/>
	</g>
	<path class="st1" d="M215.9,138.5H42.4c-0.8,0-1.5-0.5-1.8-1.2c-0.3-0.7-0.1-1.6,0.4-2.1L163.7,12.5c0.8-0.8,2-0.8,2.8,0
		c0.8,0.8,0.8,2,0,2.8L47.1,134.6h168.8c1.1,0,2,0.9,2,2C217.9,137.7,217,138.5,215.9,138.5z"/>
	<path class="st1" d="M75,137.6c-0.5,0-1-0.4-1-1c0-8.4-3.3-16.4-9.2-22.3c-0.4-0.4-0.4-1,0-1.4c0.4-0.4,1-0.4,1.4,0
		c6.3,6.3,9.8,14.7,9.8,23.7C75.9,137.1,75.5,137.6,75,137.6z"/>
	<g class="st1">
		<path d="M132.8,4.7c-0.5,0-1-0.4-1-1V-23c0-0.5,0.4-1,1-1c0.5,0,1,0.4,1,1V3.7C133.7,4.2,133.3,4.7,132.8,4.7z"/>
		<path d="M132.8-22c-3.8,0-6.9-3.1-6.9-6.9c0-3.8,3.1-6.9,6.9-6.9c3.8,0,6.9,3.1,6.9,6.9C139.6-25.1,136.5-22,132.8-22z
			 M132.8-33.8c-2.7,0-4.9,2.2-4.9,4.9s2.2,4.9,4.9,4.9c2.7,0,4.9-2.2,4.9-4.9C137.7-31.6,135.5-33.8,132.8-33.8z"/>
	</g>
	<g class="st1">
		<path d="M17.2,143.6c-5.5,0-15.9-3.3-15.9-15.9V57.9C1.3,45.3,11.7,42,17.2,42c12.6,0,15.9,10.4,15.9,15.9v69.7
			C33.1,140.3,22.7,143.6,17.2,143.6z M17.2,45.9c-1.2,0-12,0.4-12,12v69.7c0,11.8,11.4,12,12,12c1.2,0,12-0.4,12-12V57.9
			C29.2,56.7,28.8,45.9,17.2,45.9z"/>
	</g>
	<g class="st1">
		<path d="M244.8,143.6c-5.5,0-15.9-3.3-15.9-15.9V57.9c0-12.6,10.4-15.9,15.9-15.9c12.6,0,15.9,10.4,15.9,15.9v69.7
			C260.7,140.3,250.3,143.6,244.8,143.6z M244.8,45.9c-1.2,0-12,0.4-12,12v69.7c0,11.8,11.4,12,12,12c1.2,0,12-0.4,12-12V57.9
			C256.8,56.7,256.4,45.9,244.8,45.9z"/>
	</g>
	<g class="st1">
		<path d="M184.1,224.6c-12,0-21.4-16.2-21.4-36.9c0-20.7,9.4-36.9,21.4-36.9c12,0,21.4,16.2,21.4,36.9
			C205.5,208.4,196.1,224.6,184.1,224.6z M184.1,154.8c-9.5,0-17.5,15.1-17.5,33c0,17.9,8,33,17.5,33s17.5-15.1,17.5-33
			C201.6,169.9,193.6,154.8,184.1,154.8z"/>
	</g>
	<ellipse class="st1" cx="184.1" cy="187.7" rx="5.8" ry="10.4"/>
	<g class="st1">
		<path d="M100.9,224.6c-12,0-21.4-16.2-21.4-36.9c0-20.7,9.4-36.9,21.4-36.9c12,0,21.4,16.2,21.4,36.9
			C122.3,208.4,112.9,224.6,100.9,224.6z M100.9,154.8c-9.5,0-17.5,15.1-17.5,33c0,17.9,8,33,17.5,33c9.5,0,17.5-15.1,17.5-33
			C118.4,169.9,110.4,154.8,100.9,154.8z"/>
	</g>
	<ellipse class="st1" cx="100.9" cy="187.7" rx="5.8" ry="10.4"/>
	<g class="st1">
		<g>
			<path d="M184.1,224.6h-19.5c-12,0-21.4-16.2-21.4-36.9c0-20.7,9.4-36.9,21.4-36.9h19.5c1.1,0,2,0.9,2,2c0,1.1-0.9,2-2,2
				c-9.5,0-17.5,15.1-17.5,33c0,17.9,8,33,17.5,33c1.1,0,2,0.9,2,2C186,223.8,185.2,224.6,184.1,224.6z M164.6,154.8
				c-9.5,0-17.5,15.1-17.5,33c0,17.9,8,33,17.5,33h9.7c-7-6-11.7-18.4-11.7-33c0-14.6,4.7-27,11.7-33L164.6,154.8L164.6,154.8z"/>
		</g>
		<g>
			<polygon points="184.1,222.7 184.1,222.7 184.1,222.7 			"/>
			<path d="M184.1,224.6L184.1,224.6c-1.1,0-2-0.9-2-2c0-1.1,0.9-2,2-2s2,0.9,2,2C186.1,223.8,185.2,224.6,184.1,224.6z"/>
		</g>
	</g>
	<g class="st1">
		<g>
			<polygon points="100.9,222.7 100.9,222.7 100.9,222.7 			"/>
			<path d="M100.9,224.6L100.9,224.6c-1.1,0-2-0.9-2-2c0-1.1,0.9-2,2-2s2,0.9,2,2C102.9,223.8,102,224.6,100.9,224.6z"/>
		</g>
		<g>
			<path d="M100.9,224.6H81.4c-12,0-21.4-16.2-21.4-36.9c0-20.7,9.4-36.9,21.4-36.9h19.5c1.1,0,2,0.9,2,2c0,1.1-0.9,2-2,2
				c-9.5,0-17.5,15.1-17.5,33c0,17.9,8,33,17.5,33c1.1,0,2,0.9,2,2C102.8,223.8,102,224.6,100.9,224.6z M81.4,154.8
				c-9.5,0-17.5,15.1-17.5,33c0,17.9,8,33,17.5,33h9.7c-7-6-11.7-18.4-11.7-33c0-14.6,4.7-27,11.7-33L81.4,154.8L81.4,154.8z"/>
		</g>
	</g>
</g>
<g class="st0">
	<path class="st1" d="M219.6,139.2H46.1c-1.1,0-2-0.9-2-2c0-1.1,0.9-2,2-2h168.8L95.5,15.9c-0.8-0.8-0.8-2,0-2.8
		c0.8-0.8,2-0.8,2.8,0L221,135.8c0.6,0.6,0.7,1.4,0.4,2.1C221.1,138.7,220.4,139.2,219.6,139.2z"/>
	<path class="st1" d="M187,138.2c-0.5,0-1-0.4-1-1c0-8.9,3.5-17.4,9.8-23.7c0.4-0.4,1-0.4,1.4,0c0.4,0.4,0.4,1,0,1.4
		c-6,6-9.2,13.9-9.2,22.3C188,137.8,187.6,138.2,187,138.2z"/>
	<g class="st1">
		<path d="M129.2,5.3c-0.5,0-1-0.4-1-1v-26.7c0-0.5,0.4-1,1-1c0.5,0,1,0.4,1,1V4.3C130.2,4.9,129.8,5.3,129.2,5.3z"/>
		<path d="M129.2-21.4c-3.8,0-6.9-3.1-6.9-6.9c0-3.8,3.1-6.9,6.9-6.9c3.8,0,6.9,3.1,6.9,6.9C136.1-24.5,133-21.4,129.2-21.4z
			 M129.2-33.2c-2.7,0-4.9,2.2-4.9,4.9c0,2.7,2.2,4.9,4.9,4.9c2.7,0,4.9-2.2,4.9-4.9C134.2-31,132-33.2,129.2-33.2z"/>
	</g>
	<g class="st1">
		<path d="M244.8,144.2c-5.5,0-15.9-3.3-15.9-15.9V58.6c0-5.5,3.3-15.9,15.9-15.9c5.5,0,15.9,3.3,15.9,15.9v69.8
			C260.7,140.9,250.3,144.2,244.8,144.2z M244.8,46.6c-11.9,0-12,11.5-12,12v69.8c0,11.8,11.4,12,12,12c1.2,0,12-0.4,12-12V58.6
			C256.8,46.7,245.3,46.6,244.8,46.6z"/>
	</g>
	<g class="st1">
		<path d="M17.2,144.2c-5.5,0-15.9-3.3-15.9-15.9V58.6c0-5.5,3.3-15.9,15.9-15.9c5.5,0,15.9,3.3,15.9,15.9v69.8
			C33.1,140.9,22.7,144.2,17.2,144.2z M17.2,46.6c-11.9,0-12,11.5-12,12v69.8c0,11.6,10.7,12,12,12c1.3,0,12-0.4,12-12V58.6
			C29.2,46.7,17.7,46.6,17.2,46.6z"/>
	</g>
	<g class="st1">
		<path d="M177.1,224c-12,0-21.4-16.2-21.4-36.9c0-20.7,9.4-36.9,21.4-36.9s21.4,16.2,21.4,36.9C198.5,207.8,189.1,224,177.1,224z
			 M177.1,154.1c-9.5,0-17.5,15.1-17.5,33c0,17.9,8,33,17.5,33c9.5,0,17.5-15.1,17.5-33C194.6,169.2,186.6,154.1,177.1,154.1z"/>
	</g>
	<ellipse class="st1" cx="177.1" cy="187.1" rx="5.8" ry="10.4"/>
	<g class="st1">
		<path d="M93.9,224c-12,0-21.4-16.2-21.4-36.9c0-20.7,9.4-36.9,21.4-36.9c12,0,21.4,16.2,21.4,36.9C115.3,207.8,105.9,224,93.9,224
			z M93.9,154.1c-9.5,0-17.5,15.1-17.5,33c0,17.9,8,33,17.5,33c9.5,0,17.5-15.1,17.5-33C111.4,169.2,103.4,154.1,93.9,154.1z"/>
	</g>
	<ellipse class="st1" cx="93.9" cy="187.1" rx="5.8" ry="10.4"/>
	<g class="st1">
		<path d="M83.7,72.6v23.8h3.9V99h-3.9v10.5h-2.8V99H63.5v-2.6l17.3-23.8H83.7z M80.9,96.4V77.1L66.8,96.4H80.9z"/>
		<path d="M96.2,89.5c1.7-2,4.5-3,7.2-3c4.9,0,10.4,2.7,10.4,10.7v2.3c0,7.9-5.5,10.7-10.4,10.7c-4.9,0-10.4-2.7-10.4-10.7V99h2.8
			v0.4c0,4.9,3.2,8,7.6,8c4.4,0,7.6-3.1,7.6-8v-2.3c0-4.9-3.2-8-7.6-8c-3,0-5.4,1.4-6.7,3.7h-3.3V72.6h19v2.7H96.2L96.2,89.5
			L96.2,89.5z"/>
		<path d="M127.6,72.3c4.5,0,8.2,3.7,8.2,8.2c0,4.5-3.7,8.2-8.2,8.2c-4.5,0-8.2-3.7-8.2-8.2C119.3,76,123,72.3,127.6,72.3z
			 M127.6,86.5c3.3,0,5.9-2.6,5.9-5.9s-2.6-5.9-5.9-5.9c-3.3,0-5.8,2.6-5.8,5.9S124.3,86.5,127.6,86.5z"/>
	</g>
	<g class="st1">
		<g>
			<path d="M177.1,224h-19.5c-12,0-21.4-16.2-21.4-36.9c0-20.7,9.4-36.9,21.4-36.9h19.5c1.1,0,2,0.9,2,2c0,1.1-0.9,2-2,2
				c-9.5,0-17.5,15.1-17.5,33c0,17.9,8,33,17.5,33c1.1,0,2,0.9,2,2C179,223.1,178.2,224,177.1,224z M157.6,154.1
				c-9.5,0-17.5,15.1-17.5,33c0,17.9,8,33,17.5,33h9.7c-7-6-11.7-18.4-11.7-33c0-14.6,4.7-27,11.7-33L157.6,154.1L157.6,154.1z"/>
		</g>
		<g>
			<polygon points="177.1,222 177.1,222 177.1,222 			"/>
			<path d="M177.1,224L177.1,224c-1.1,0-2-0.9-2-2c0-1.1,0.9-2,2-2c1.1,0,2,0.9,2,2C179.1,223.1,178.2,224,177.1,224z"/>
		</g>
	</g>
	<g class="st1">
		<g>
			<polygon points="93.9,222 93.9,222 93.9,222 			"/>
			<path d="M93.9,224L93.9,224c-1.1,0-2-0.9-2-2c0-1.1,0.9-2,2-2s2,0.9,2,2C95.9,223.1,95,224,93.9,224z"/>
		</g>
		<g>
			<path d="M93.9,224H74.4c-12,0-21.4-16.2-21.4-36.9c0-20.7,9.4-36.9,21.4-36.9h19.5c1.1,0,2,0.9,2,2c0,1.1-0.9,2-2,2
				c-9.5,0-17.5,15.1-17.5,33c0,17.9,8,33,17.5,33c1.1,0,2,0.9,2,2C95.8,223.1,95,224,93.9,224z M74.4,154.1
				c-9.5,0-17.5,15.1-17.5,33c0,17.9,8,33,17.5,33h9.7c-7-6-11.7-18.4-11.7-33c0-14.6,4.7-27,11.7-33L74.4,154.1L74.4,154.1z"/>
		</g>
	</g>
</g>
<g class="st0">
	<path class="st1" d="M131.9,212.3h-1.8c-16.7,0-30.2-13.6-30.2-30.2v-1.8c0-7.7,2.9-15,8.1-20.6V-0.4c0-12.7,10.3-23,23-23
		c12.7,0,23,10.3,23,23v160.1c5.2,5.6,8.1,12.9,8.1,20.6v1.8C162.1,198.7,148.6,212.3,131.9,212.3z M131-19.5
		c-10.5,0-19.1,8.6-19.1,19.1v160.8c0,0.5-0.2,1-0.6,1.4c-4.9,5-7.5,11.5-7.5,18.4v1.8c0,14.5,11.8,26.3,26.3,26.3h1.8
		c14.5,0,26.3-11.8,26.3-26.3v-1.8c0-6.9-2.7-13.5-7.5-18.4c-0.4-0.4-0.6-0.9-0.6-1.4V-0.4C150.1-10.9,141.5-19.5,131-19.5z"/>
	<path class="st1" d="M152.1,131.4h-40.5c-1.1,0-2-0.9-2-2c0-1.1,0.9-2,2-2h40.5c1.1,0,2,0.9,2,2C154,130.5,153.2,131.4,152.1,131.4
		z"/>
	<path class="st1" d="M150.4,150.9h-14.2c-0.5,0-1-0.4-1-1s0.4-1,1-1h14.2c0.5,0,1,0.4,1,1S150.9,150.9,150.4,150.9z"/>
	<path class="st1" d="M150.4,130.4H128c-0.5,0-1-0.4-1-1c0-0.5,0.4-1,1-1h22.4c0.5,0,1,0.4,1,1C151.3,130,150.9,130.4,150.4,130.4z"
		/>
	<path class="st1" d="M150.4,110h-14.2c-0.5,0-1-0.4-1-1s0.4-1,1-1h14.2c0.5,0,1,0.4,1,1S150.9,110,150.4,110z"/>
	<path class="st1" d="M150.4,88.1h-22.7c-0.5,0-1-0.4-1-1s0.4-1,1-1h22.7c0.5,0,1,0.4,1,1S150.9,88.1,150.4,88.1z"/>
	<path class="st1" d="M150.4,65.4h-14.4c-0.5,0-1-0.4-1-1s0.4-1,1-1h14.4c0.5,0,1,0.4,1,1S150.9,65.4,150.4,65.4z"/>
	<path class="st1" d="M150.4,42.7h-22.7c-0.5,0-1-0.4-1-1s0.4-1,1-1h22.7c0.5,0,1,0.4,1,1S150.9,42.7,150.4,42.7z"/>
	<path class="st1" d="M152.1,22.3h-16.7c-0.5,0-1-0.4-1-1c0-0.5,0.4-1,1-1h16.7c0.5,0,1,0.4,1,1C153.1,21.9,152.6,22.3,152.1,22.3z"
		/>
	<path class="st1" d="M150.4,0.4h-22.7c-0.5,0-1-0.4-1-1s0.4-1,1-1h22.7c0.5,0,1,0.4,1,1S150.9,0.4,150.4,0.4z"/>
</g>
<g class="st0">
	<g class="st1">
		<path d="M68.1,43.4c-1,0-1.9-0.8-2-1.8c-0.1-1,0.6-1.8,1.6-2c0.5-0.3,4.6-3.9,4.6-28.9s-4.1-28.6-4.6-28.9c-0.2,0-0.4-0.1-0.6-0.2
			c-0.5-0.2-0.8-0.7-1-1.2c-0.1-0.2-0.1-0.4-0.1-0.7c0.1-1,0.9-1.8,2-1.8l0,0c0.1,0,0.1,0,0.2,0l0,0l0,0c0,0,0.1,0,0.1,0l154,18.5
			c0.2,0,7.9,0.2,7.9,14.3c0,14.1-7.8,14.3-8.1,14.3L68.4,43.4c0,0,0,0,0,0C68.3,43.4,68.2,43.4,68.1,43.4z M72.7-17.6
			c1.9,4.3,3.5,12.6,3.5,28.3s-1.6,24-3.5,28.3l149.2-17.9c1.6-0.1,4.4-2.4,4.4-10.4s-2.8-10.3-4.3-10.4L72.7-17.6z"/>
	</g>
	<g class="st1">
		<path d="M166.7,30.1c-0.3,0-0.5-0.1-0.7-0.3c-0.4-0.4-0.4-1,0-1.4c0.1-0.1,5.9-6.1,5.9-17.8S166.1-7.1,166-7.1
			c-0.4-0.4-0.4-1,0-1.4c0.4-0.4,1-0.4,1.4,0c0.3,0.3,6.4,6.6,6.4,19.2s-6.2,18.9-6.4,19.2C167.2,30,167,30.1,166.7,30.1z"/>
	</g>
	<g class="st1">
		<path d="M117.4,36.3c-0.3,0-0.5-0.1-0.7-0.3c-0.4-0.4-0.4-1,0-1.4c0.1-0.1,5.9-6.2,5.9-24c0-17.8-5.8-23.9-5.9-24
			c-0.4-0.4-0.4-1,0-1.4c0.4-0.4,1-0.4,1.4,0c0.3,0.3,6.4,6.7,6.4,25.3s-6.2,25.1-6.4,25.3C117.9,36.2,117.7,36.3,117.4,36.3z"/>
	</g>
	<g class="st1">
		<path d="M68.1,43.4c-0.5,0-1-0.2-1.4-0.6L35.9,12.1c-0.8-0.8-0.8-2,0-2.8l30.8-30.8c0.8-0.8,2-0.8,2.8,0c0.8,0.8,0.8,2,0,2.8
			L40.1,10.7l29.4,29.4c0.8,0.8,0.8,2,0,2.8C69.1,43.3,68.6,43.4,68.1,43.4z"/>
	</g>
	<path class="st1" d="M36.7,207.8c0,1.7-1.1,3.1-2.5,3.1l0,0c-1.4,0-2.5-1.4-2.5-3.1V-17c0-1.7,1.1-3.1,2.5-3.1l0,0
		c1.4,0,2.5,1.4,2.5,3.1V207.8z"/>
</g>
<g class="st0">
	<g class="st1">
		<g>
			<path d="M216.1,122.6H46.2c-6.6,0-11.9-5.4-11.9-11.9V11.9C34.3,5.3,39.6,0,46.2,0h169.9c6.6,0,11.9,5.3,11.9,11.9v98.8
				C228,117.3,222.7,122.6,216.1,122.6z M46.2,3.9c-4.4,0-8,3.6-8,8v98.8c0,4.4,3.6,8,8,8h169.9c4.4,0,8-3.6,8-8V11.9
				c0-4.4-3.6-8-8-8H46.2z"/>
		</g>
		<path d="M217.2,112.3h-172c-0.5,0-1-0.4-1-1V11.3c0-0.5,0.4-1,1-1h172c0.5,0,1,0.4,1,1v99.9C218.2,111.8,217.7,112.3,217.2,112.3z
			 M46.1,110.3h170.1v-98H46.1L46.1,110.3L46.1,110.3z"/>
	</g>
	<g class="st1">
		<path d="M249.6,180.3H12.4c-6.3,0-10.7-1.5-12-4.1c-0.4-0.8-0.9-2.5,0.6-4.4l34.6-46.2c2.6-3.5,9.2-6.2,15.1-6.2h160.7
			c5.8,0,12.5,2.7,15.1,6.2l34.6,46.2c1.4,1.9,1,3.6,0.6,4.4C259.7,179.9,252.6,180.3,249.6,180.3z M50.6,123.3
			c-4.6,0-10,2.1-11.9,4.6L4.1,174.1c-0.1,0.2-0.2,0.3-0.2,0.4c0.2,0.5,2.6,1.9,8.5,1.9h237.2c5.9,0,8.3-1.5,8.5-2l0,0
			c0,0-0.1-0.1-0.2-0.3l-34.6-46.2c-1.9-2.5-7.3-4.6-11.9-4.6L50.6,123.3L50.6,123.3z"/>
	</g>
	<g class="st1">
		<path d="M153.8,99.1h-45.2c-0.5,0-1-0.4-1-1c0-0.5,0.4-1,1-1h45.2c0.5,0,1,0.4,1,1C154.8,98.7,154.3,99.1,153.8,99.1z"/>
		<g>
			<path d="M130.8,92.3c-0.5,0-1-0.4-1-1V74.4c0-0.5,0.4-1,1-1c0.5,0,1,0.4,1,1v16.9C131.8,91.8,131.3,92.3,130.8,92.3z"/>
			<path d="M130.8,92.3c-0.3,0-0.5-0.1-0.7-0.3l-5.6-5.6c-0.4-0.4-0.4-1,0-1.4c0.4-0.4,1-0.4,1.4,0l4.9,4.9l5-4.9
				c0.4-0.4,1-0.4,1.4,0c0.4,0.4,0.4,1,0,1.4l-5.6,5.6C131.3,92.2,131,92.3,130.8,92.3z"/>
		</g>
	</g>
	<path class="st1" d="M238.2,159.6H25c-0.4,0-0.7-0.2-0.9-0.5c-0.2-0.3-0.1-0.7,0.1-1l19.4-28.5c0.2-0.3,0.5-0.4,0.8-0.4h174.3
		c0.3,0,0.6,0.2,0.8,0.4l19.4,28.5c0.2,0.3,0.2,0.7,0.1,1C238.9,159.4,238.5,159.6,238.2,159.6z M26.9,157.7h209.4l-18-26.6H45
		L26.9,157.7z"/>
	<g class="st1">
		<path d="M145.3,71c-0.5,0-1.1-0.2-1.5-0.7c-0.2-0.2-4.5-4.9-13-4.9c-8.6,0-12.9,4.7-13,4.9c-0.7,0.8-1.9,0.9-2.8,0.2
			c-0.8-0.7-0.9-1.9-0.2-2.7c0.2-0.3,5.5-6.3,16-6.3c10.4,0,15.8,6,16,6.3c0.7,0.8,0.6,2-0.2,2.8C146.2,70.9,145.8,71,145.3,71z"/>
		<path d="M151.4,63.8c-0.5,0-1.1-0.2-1.5-0.7c-0.2-0.2-6.5-6.9-19.1-6.9s-19,6.8-19.1,7c-0.7,0.8-2,0.9-2.8,0.2
			c-0.8-0.7-0.9-1.9-0.2-2.8c0.3-0.3,7.6-8.3,22-8.3c14.4,0,21.7,7.9,22,8.3c0.7,0.8,0.6,2-0.2,2.8
			C152.3,63.6,151.8,63.8,151.4,63.8z"/>
		<path d="M157.4,56.5c-0.5,0-1.1-0.2-1.4-0.6c-0.1-0.2-8.6-9-25.2-9s-25,8.8-25.2,9c-0.7,0.8-2,0.9-2.8,0.1c-0.8-0.7-0.9-2-0.1-2.8
			c0.4-0.4,9.7-10.3,28.1-10.3s27.7,9.8,28.1,10.3c0.7,0.8,0.7,2-0.1,2.8C158.4,56.3,157.9,56.5,157.4,56.5z"/>
		<path d="M163.5,49.2c-0.5,0-1-0.2-1.4-0.6c-0.1-0.1-10.7-11-31.2-11c-20.6,0-31.1,10.9-31.2,11c-0.7,0.8-2,0.8-2.8,0.1
			C96,48,96,46.7,96.7,46c0.5-0.5,11.7-12.3,34.1-12.3c22.4,0,33.6,11.8,34.1,12.3c0.7,0.8,0.7,2-0.1,2.8
			C164.4,49.1,163.9,49.2,163.5,49.2z"/>
		<path d="M169.5,42c-0.5,0-1-0.2-1.4-0.6c-0.1-0.1-12.7-13-37.3-13s-37.2,12.9-37.3,13c-0.7,0.8-2,0.8-2.8,0.1s-0.8-2-0.1-2.8
			c0.6-0.6,13.8-14.3,40.1-14.3s39.6,13.7,40.1,14.3c0.7,0.8,0.7,2-0.1,2.8C170.5,41.8,170,42,169.5,42z"/>
	</g>
	<g class="st1">
		<path d="M249.6,188.9H12.4c-3.2,0-8.8-0.4-11.3-3.1c-0.8-0.9-1.2-2-1.1-3.2l0-7.8c0-0.2,0-0.4,0-0.6v-0.1c0-1.7,2.4-2.5,3.5-1.2
			c0.4,0.4,0.5,1,0.4,1.6v0.1c0.3,0.5,2.7,1.9,8.5,1.9h237.2c5.6,0,8.1-1.4,8.4-1.9v-0.2c-0.1-0.5,0.1-1.1,0.4-1.5
			c1-1.3,3.4-0.5,3.5,1.2c0,0.3,0,0.6,0,0.9v7.9c0.1,0.9-0.2,2-1.1,2.9C258.5,188.5,252.8,188.9,249.6,188.9z M3.9,179v3.8
			c0.2,0.7,2.6,2.2,8.5,2.2h237.2c5.8,0,8.3-1.5,8.5-2l0-4c-2.1,0.8-5,1.3-8.4,1.3H12.4C8.9,180.3,6,179.9,3.9,179z"/>
	</g>
</g>
<g>
	<g>
		<g>
			<path d="M216.1,122.6H46.2c-6.6,0-11.9-5.4-11.9-11.9V11.9C34.3,5.3,39.6,0,46.2,0h169.9c6.6,0,11.9,5.3,11.9,11.9v98.8
				C228,117.3,222.7,122.6,216.1,122.6z M46.2,3.9c-4.4,0-8,3.6-8,8v98.8c0,4.4,3.6,8,8,8h169.9c4.4,0,8-3.6,8-8V11.9
				c0-4.4-3.6-8-8-8H46.2z"/>
		</g>
		<path d="M217.2,112.3h-172c-0.5,0-1-0.4-1-1V11.3c0-0.5,0.4-1,1-1h172c0.5,0,1,0.4,1,1v99.9C218.2,111.8,217.7,112.3,217.2,112.3z
			 M46.1,110.3h170.1v-98H46.1L46.1,110.3L46.1,110.3z"/>
	</g>
	<g>
		<path d="M249.6,180.3H12.4c-6.3,0-10.7-1.5-12-4.1c-0.4-0.8-0.9-2.5,0.6-4.4l34.6-46.2c2.6-3.5,9.2-6.2,15.1-6.2h160.7
			c5.8,0,12.5,2.7,15.1,6.2l34.6,46.2c1.4,1.9,1,3.6,0.6,4.4C259.7,179.9,252.6,180.3,249.6,180.3z M50.6,123.3
			c-4.6,0-10,2.1-11.9,4.6L4.1,174.1c-0.1,0.2-0.2,0.3-0.2,0.4c0.2,0.5,2.6,1.9,8.5,1.9h237.2c5.9,0,8.3-1.5,8.5-2l0,0
			c0,0-0.1-0.1-0.2-0.3l-34.6-46.2c-1.9-2.5-7.3-4.6-11.9-4.6L50.6,123.3L50.6,123.3z"/>
	</g>
	<path d="M153.8,99.1h-45.2c-0.5,0-1-0.4-1-1c0-0.5,0.4-1,1-1h45.2c0.5,0,1,0.4,1,1C154.8,98.7,154.3,99.1,153.8,99.1z"/>
	<g>
		<path d="M130.8,73.4c0.5,0,1,0.4,1,1v16.9c0,0.5-0.4,1-1,1c-0.5,0-1-0.4-1-1V74.4C129.8,73.8,130.3,73.4,130.8,73.4z"/>
		<path d="M130.8,73.4c0.3,0,0.5,0.1,0.7,0.3l5.6,5.6c0.4,0.4,0.4,1,0,1.4c-0.4,0.4-1,0.4-1.4,0l-4.9-4.9l-5,4.9
			c-0.4,0.4-1,0.4-1.4,0c-0.4-0.4-0.4-1,0-1.4l5.6-5.6C130.3,73.5,130.6,73.4,130.8,73.4z"/>
	</g>
	<path d="M238.2,159.6H25c-0.4,0-0.7-0.2-0.9-0.5c-0.2-0.3-0.1-0.7,0.1-1l19.4-28.5c0.2-0.3,0.5-0.4,0.8-0.4h174.3
		c0.3,0,0.6,0.2,0.8,0.4l19.4,28.5c0.2,0.3,0.2,0.7,0.1,1C238.9,159.4,238.5,159.6,238.2,159.6z M26.9,157.7h209.4l-18-26.6H45
		L26.9,157.7z"/>
	<g>
		<path d="M145.3,71c-0.5,0-1.1-0.2-1.5-0.7c-0.2-0.2-4.5-4.9-13-4.9c-8.6,0-12.9,4.7-13,4.9c-0.7,0.8-1.9,0.9-2.8,0.2
			c-0.8-0.7-0.9-1.9-0.2-2.7c0.2-0.3,5.5-6.3,16-6.3c10.4,0,15.8,6,16,6.3c0.7,0.8,0.6,2-0.2,2.8C146.2,70.9,145.8,71,145.3,71z"/>
		<path d="M151.4,63.8c-0.5,0-1.1-0.2-1.5-0.7c-0.2-0.2-6.5-6.9-19.1-6.9s-19,6.8-19.1,7c-0.7,0.8-2,0.9-2.8,0.2
			c-0.8-0.7-0.9-1.9-0.2-2.8c0.3-0.3,7.6-8.3,22-8.3c14.4,0,21.7,7.9,22,8.3c0.7,0.8,0.6,2-0.2,2.8
			C152.3,63.6,151.8,63.8,151.4,63.8z"/>
		<path d="M157.4,56.5c-0.5,0-1.1-0.2-1.4-0.6c-0.1-0.2-8.6-9-25.2-9s-25,8.8-25.2,9c-0.7,0.8-2,0.9-2.8,0.1c-0.8-0.7-0.9-2-0.1-2.8
			c0.4-0.4,9.7-10.3,28.1-10.3s27.7,9.8,28.1,10.3c0.7,0.8,0.7,2-0.1,2.8C158.4,56.3,157.9,56.5,157.4,56.5z"/>
		<path d="M163.5,49.2c-0.5,0-1-0.2-1.4-0.6c-0.1-0.1-10.7-11-31.2-11c-20.6,0-31.1,10.9-31.2,11c-0.7,0.8-2,0.8-2.8,0.1
			C96,48,96,46.7,96.7,46c0.5-0.5,11.7-12.3,34.1-12.3c22.4,0,33.6,11.8,34.1,12.3c0.7,0.8,0.7,2-0.1,2.8
			C164.4,49.1,163.9,49.2,163.5,49.2z"/>
		<path d="M169.5,42c-0.5,0-1-0.2-1.4-0.6c-0.1-0.1-12.7-13-37.3-13s-37.2,12.9-37.3,13c-0.7,0.8-2,0.8-2.8,0.1s-0.8-2-0.1-2.8
			c0.6-0.6,13.8-14.3,40.1-14.3s39.6,13.7,40.1,14.3c0.7,0.8,0.7,2-0.1,2.8C170.5,41.8,170,42,169.5,42z"/>
	</g>
	<g>
		<path d="M249.6,188.9H12.4c-3.2,0-8.8-0.4-11.3-3.1c-0.8-0.9-1.2-2-1.1-3.2l0-7.8c0-0.2,0-0.4,0-0.6v-0.1c0-1.7,2.4-2.5,3.5-1.2
			c0.4,0.4,0.5,1,0.4,1.6v0.1c0.3,0.5,2.7,1.9,8.5,1.9h237.2c5.6,0,8.1-1.4,8.4-1.9v-0.2c-0.1-0.5,0.1-1.1,0.4-1.5
			c1-1.3,3.4-0.5,3.5,1.2c0,0.3,0,0.6,0,0.9v7.9c0.1,0.9-0.2,2-1.1,2.9C258.5,188.5,252.8,188.9,249.6,188.9z M3.9,179v3.8
			c0.2,0.7,2.6,2.2,8.5,2.2h237.2c5.8,0,8.3-1.5,8.5-2l0-4c-2.1,0.8-5,1.3-8.4,1.3H12.4C8.9,180.3,6,179.9,3.9,179z"/>
	</g>
</g>
</svg>
